<svg xmlns="http://www.w3.org/2000/svg" id="svg" viewBox="0 0 300 300" width="300" height="300"><svg xmlns="http://www.w3.org/2000/svg"><defs><clipPath id="clip-1"><rect x="0" y="0" transform="scale(0.14648,0.14648)" width="2048" height="2048" fill="none"></rect></clipPath><linearGradient x1="145.95264" y1="303.1875" x2="153.90088" y2="-3.33381" gradientUnits="userSpaceOnUse" id="color-1"><stop offset="0" stop-color="#030303"></stop><stop offset="1" stop-color="#242425"></stop></linearGradient><linearGradient x1="154.22461" y1="209.8916" x2="145.66099" y2="67.39541" gradientUnits="userSpaceOnUse" id="color-2"><stop offset="0" stop-color="#090909"></stop><stop offset="1" stop-color="#363637"></stop></linearGradient><linearGradient x1="202.65381" y1="187.05029" x2="177.17432" y2="201.77197" gradientUnits="userSpaceOnUse" id="color-3"><stop offset="0" stop-color="#7d5b2c"></stop><stop offset="1" stop-color="#c19d65"></stop></linearGradient><linearGradient x1="192.44092" y1="177.05859" x2="188.56348" y2="180.00732" gradientUnits="userSpaceOnUse" id="color-4"><stop offset="0" stop-color="#9d7c47"></stop><stop offset="1" stop-color="#dcbb7e"></stop></linearGradient><linearGradient x1="188.91797" y1="178.83252" x2="173.23535" y2="180.03955" gradientUnits="userSpaceOnUse" id="color-5"><stop offset="0" stop-color="#906c3e"></stop><stop offset="1" stop-color="#bfa063"></stop></linearGradient><linearGradient x1="189.59619" y1="183.72217" x2="178.91162" y2="182.8667" gradientUnits="userSpaceOnUse" id="color-6"><stop offset="0" stop-color="#5d3e16"></stop><stop offset="1" stop-color="#9d7d48"></stop></linearGradient><linearGradient x1="185.25586" y1="188.1167" x2="203.38916" y2="193.18799" gradientUnits="userSpaceOnUse" id="color-7"><stop offset="0" stop-color="#573711"></stop><stop offset="1" stop-color="#896734"></stop></linearGradient><linearGradient x1="200.83301" y1="200.61914" x2="206.68506" y2="198.48633" gradientUnits="userSpaceOnUse" id="color-8"><stop offset="0" stop-color="#9b753f"></stop><stop offset="1" stop-color="#ba945a"></stop></linearGradient><linearGradient x1="134.61621" y1="114.48252" x2="117.06694" y2="95.55483" gradientUnits="userSpaceOnUse" id="color-9"><stop offset="0" stop-color="#b19753"></stop><stop offset="1" stop-color="#fff0c3"></stop></linearGradient><linearGradient x1="131.74863" y1="91.37183" x2="123.5042" y2="89.81616" gradientUnits="userSpaceOnUse" id="color-10"><stop offset="0" stop-color="#76622e"></stop><stop offset="1" stop-color="#b4845f"></stop></linearGradient><linearGradient x1="135.62051" y1="103.84277" x2="139.87559" y2="107.36396" gradientUnits="userSpaceOnUse" id="color-11"><stop offset="0" stop-color="#c19d5e"></stop><stop offset="1" stop-color="#e7cb90"></stop></linearGradient><linearGradient x1="187.92188" y1="73.00298" x2="165.25781" y2="72.89678" gradientUnits="userSpaceOnUse" id="color-12"><stop offset="0" stop-color="#ae8955"></stop><stop offset="1" stop-color="#e8cf91"></stop></linearGradient><linearGradient x1="131.01826" y1="112.17935" x2="133.7748" y2="114.44004" gradientUnits="userSpaceOnUse" id="color-13"><stop offset="0" stop-color="#9c7d4b"></stop><stop offset="1" stop-color="#caab75"></stop></linearGradient><linearGradient x1="189.77344" y1="66.8877" x2="182.50049" y2="77.64082" gradientUnits="userSpaceOnUse" id="color-14"><stop offset="0" stop-color="#9c7b43"></stop><stop offset="1" stop-color="#be9c64"></stop></linearGradient><linearGradient x1="115.6377" y1="152.09619" x2="126.67837" y2="116.625" gradientUnits="userSpaceOnUse" id="color-15"><stop offset="0" stop-color="#63411a"></stop><stop offset="1" stop-color="#b39058"></stop></linearGradient><linearGradient x1="177.03223" y1="116.05518" x2="171.15967" y2="111.01421" gradientUnits="userSpaceOnUse" id="color-16"><stop offset="0" stop-color="#d0af6b"></stop><stop offset="1" stop-color="#f2d99d"></stop></linearGradient><linearGradient x1="179.41992" y1="172.27002" x2="171.75146" y2="179.11377" gradientUnits="userSpaceOnUse" id="color-17"><stop offset="0" stop-color="#36210a"></stop><stop offset="1" stop-color="#74542a"></stop></linearGradient><linearGradient x1="170.06689" y1="98.60098" x2="164.52832" y2="92.35591" gradientUnits="userSpaceOnUse" id="color-18"><stop offset="0" stop-color="#4d3114"></stop><stop offset="1" stop-color="#6b471e"></stop></linearGradient><linearGradient x1="125.25059" y1="153.73975" x2="121.86855" y2="132.63706" gradientUnits="userSpaceOnUse" id="color-19"><stop offset="0" stop-color="#906a32"></stop><stop offset="1" stop-color="#dcbb7f"></stop></linearGradient><linearGradient x1="175.31104" y1="183.6416" x2="174.35596" y2="184.40771" gradientUnits="userSpaceOnUse" id="color-20"><stop offset="0" stop-color="#191a17"></stop><stop offset="1" stop-color="#35342f"></stop></linearGradient><linearGradient x1="83.94463" y1="190.58203" x2="140.31768" y2="158.05957" gradientUnits="userSpaceOnUse" id="color-21"><stop offset="0" stop-color="#805f2f"></stop><stop offset="1" stop-color="#a38047"></stop></linearGradient><linearGradient x1="112.14712" y1="173.21338" x2="127.21538" y2="202.78271" gradientUnits="userSpaceOnUse" id="color-22"><stop offset="0" stop-color="#725025"></stop><stop offset="1" stop-color="#b18d4c"></stop></linearGradient><linearGradient x1="109.74624" y1="193.3916" x2="116.49185" y2="191.8125" gradientUnits="userSpaceOnUse" id="color-23"><stop offset="0" stop-color="#5a4023"></stop><stop offset="1" stop-color="#90662c"></stop></linearGradient><linearGradient x1="115.6938" y1="185.47705" x2="127.77568" y2="187.11768" gradientUnits="userSpaceOnUse" id="color-24"><stop offset="0" stop-color="#331800"></stop><stop offset="1" stop-color="#5c3c10"></stop></linearGradient><linearGradient x1="90.34717" y1="101.93789" x2="123.26367" y2="105.99932" gradientUnits="userSpaceOnUse" id="color-25"><stop offset="0" stop-color="#d0ac6d"></stop><stop offset="1" stop-color="#ffefb9"></stop></linearGradient><linearGradient x1="115.21084" y1="115.50352" x2="107.44453" y2="116.07759" gradientUnits="userSpaceOnUse" id="color-26"><stop offset="0" stop-color="#161812"></stop><stop offset="1" stop-color="#292728"></stop></linearGradient></defs><g clip-path="url(#clip-1)" fill="none" fill-rule="nonzero" stroke="none" stroke-width="1" stroke-linecap="butt" stroke-linejoin="miter" stroke-miterlimit="10" stroke-dasharray="" stroke-dashoffset="0" font-family="none" font-weight="none" font-size="none" text-anchor="none" style="mix-blend-mode: normal"><path d="M0,0h300v300h-300z" fill="url(#color-1)"></path><path d="M93.95698,67.10259c0.3271,-0.17168 0.51167,-0.1749 0.88022,-0.17373c9.96577,0.03237 19.93198,0.00396 29.89775,0.01436c1.10332,0.00103 2.18657,-0.0126 3.2877,0.07705c0.03882,2.28267 0.04673,4.56577 0.02358,6.84858l0.04893,24.71631c0.02725,3.36416 0.02637,6.72847 -0.00278,10.09263c-0.00732,1.27471 0.06343,3.57627 -0.0416,4.73452c-0.04819,1.00371 0.05596,1.852 0.15044,2.84971c1.2252,-1.76792 5.06558,-5.87593 6.68862,-7.40742c0.23657,-0.38818 3.73022,-4.1644 4.28716,-4.78037l10.29126,-11.49609c1.98486,-2.37041 4.28906,-4.86533 6.34717,-7.20117c3.29004,-3.76963 6.61816,-7.50674 9.98291,-11.21089c1.63477,-2.14175 4.01514,-4.58306 5.83594,-6.62256c0.56982,-0.63809 0.6958,-0.56367 1.41943,-0.57261c7.62451,-0.1144 31.75342,0.14502 40.85449,0.01157c0.06006,0.04438 0.12012,0.08862 0.17871,0.13286l-0.42041,0.31099c-1.38281,2.24604 -5.09766,6.17139 -6.97412,8.26099l-8.0332,9.1207l-27.34424,30.90557l-9.30469,10.57515c-2.12109,2.42153 -4.52051,5.09048 -6.46289,7.62144c2.12695,2.99751 4.875,5.87153 7.11182,8.8188c1.56885,2.0666 3.58447,4.08794 5.02148,6.2354c0.72949,0.66943 3.0249,3.58887 3.74707,4.46777l8.24414,10.10449l25.75928,31.43701c1.26855,1.54688 11.79492,14.10791 12.05127,14.896l-0.22559,0.09229c-14.23682,0.06445 -28.82373,-0.28564 -43.03271,0.10547c-2.14014,-2.93701 -4.5542,-5.67187 -6.8042,-8.51221l-15.71631,-19.79004l-9.34292,-11.70703c-1.91587,-2.28223 -4.66802,-5.68799 -6.39141,-8.07422c-0.61582,-0.76318 -1.1105,-1.37695 -1.65923,-2.19287l-1.07388,-1.35352c-1.66597,1.96289 -3.346,3.99023 -5.09326,5.87402c-0.01201,5.1709 -0.18809,9.89648 -0.27861,14.99854l0.00879,2.12695c0.30513,3.56689 0.23071,7.51025 0.2376,11.12109l0.04453,17.48877c-11.37627,-0.08789 -22.75283,-0.11426 -34.12939,-0.07764c0.05698,-4.73291 -0.14414,-10.50439 0.05098,-15.08203c-0.02534,-2.2998 -0.02871,-4.59961 -0.01011,-6.89941c-0.173,-2.85498 -0.00996,-7.15723 -0.0457,-10.1543c-0.05684,-4.75049 -0.23936,-11.2998 0.14854,-15.98877c-0.17915,-6.21826 0.14546,-12.72217 0.10049,-18.96841c-0.01714,-2.38286 -0.02256,-5.38066 0.19746,-7.69702l0.03105,-23.36338c-0.36812,-3.31084 -0.65332,-11.08901 -0.00542,-14.29556c-0.16948,-6.55649 -0.27437,-13.1146 -0.31479,-19.67314c-0.14751,-1.1918 -0.13799,-3.53145 -0.16172,-4.78198c-0.03501,-1.84248 -0.15439,-4.15034 -0.05962,-5.96265z" fill="url(#color-2)"></path><path d="M173.05371,66.9709c7.62451,-0.1144 31.75342,0.14502 40.85449,0.01157c0.06006,0.04438 0.12012,0.08862 0.17871,0.13286l-0.42041,0.31099c-1.38281,2.24604 -5.09766,6.17139 -6.97412,8.26099l-8.0332,9.1207l-27.34424,30.90557l-9.30469,10.57515c-2.12109,2.42153 -4.52051,5.09048 -6.46289,7.62144c2.12695,2.99751 4.875,5.87153 7.11182,8.8188c1.56885,2.0666 3.58447,4.08794 5.02148,6.2354c0.72949,0.66943 3.0249,3.58887 3.74707,4.46777l8.24414,10.10449l25.75928,31.43701c1.26855,1.54688 11.79492,14.10791 12.05127,14.896l-0.22559,0.09229c-14.23682,0.06445 -28.82373,-0.28564 -43.03271,0.10547c-2.14014,-2.93701 -4.5542,-5.67187 -6.8042,-8.51221l-15.71631,-19.79004c-0.03955,-0.47607 -0.11572,-0.29443 0.09375,-0.62109l0.4834,0.16699l0.14355,-0.01611c0.44531,0.13184 0.42041,0.1582 0.85254,0.00732c0.36768,-0.85547 -0.57861,-1.13672 -0.54199,-1.86182c0.82764,0.55518 2.66016,3.47168 3.37793,3.54053l0.14355,-0.18457c1.92188,2.34961 3.82764,4.7124 5.71875,7.08838c0.8291,1.0415 2.35547,2.86963 3.06152,3.90527c1.64355,1.82813 3.84375,4.81641 5.4082,6.81592c1.57031,2.00537 3.79688,4.66992 5.19873,6.67969l14.54297,-0.03662c2.93848,0.20801 6.27539,-0.10107 9.18457,0.04102c4.01514,-0.00293 8.33057,-0.09668 12.31348,0.0249c-0.15234,-0.49805 -0.70312,-1.04297 -1.06787,-1.47949c-0.08643,0.41602 -0.09961,0.38965 0.04541,0.78516l-0.14502,-0.07471l-1.1748,-0.01904l-0.04248,0.27393l0.24902,0.30908l0.0293,-0.00586l-0.15527,0.08203c-1.99805,-0.14941 -19.87354,-8.00244 -22.15576,-9.48193c-0.44824,-0.12744 -1.59814,-0.15234 -2.12695,-0.17578c-0.74561,-0.51416 -6.30469,-7.40918 -6.97998,-8.31592c0.02637,-0.61963 -0.20508,-1.06201 -0.62402,-1.55859c-3.33838,-3.97705 -6.64893,-7.99512 -9.87451,-12.07031c-1.18213,-1.49268 -2.79639,-3.27832 -3.81445,-4.83252c0.44092,-0.37354 0.23438,-0.42334 -0.12012,-0.83643c-0.70898,-0.82764 -1.14258,-1.46484 -1.52344,-2.47998c-3.17285,-4.19385 -7.22607,-8.61035 -10.38135,-12.88623c-1.28467,-1.73877 -8.63306,-11.37158 -9.91787,-11.77998l-0.10078,-0.26792c0.46025,-1.17437 4.1625,-4.73203 5.01475,-5.75068c1.32422,-1.58247 2.74658,-3.14209 4.09277,-4.69028l37.55713,-42.74575c2.61328,-3.06343 5.25732,-6.10181 7.9292,-9.11455c1.81494,-2.01782 3.53027,-3.75439 5.13721,-5.97056c0.39111,-0.54067 1.02539,-1.02949 1.45313,-1.63872c-1.02686,-0.08555 -3.41895,1.51875 -4.53516,1.18755c-2.88721,0.79336 -11.37891,3.43052 -13.42383,5.15757c-1.93066,1.63125 -6.19922,6.5625 -8.04639,8.64624l-15.12451,17.06646l-35.64961,39.78809c-3.548,4.01294 -7.85376,8.58179 -11.24004,12.62329c-1.11885,0.20947 -1.37329,0.88623 -2.6562,1.08545l-0.13564,0.30762c-0.15249,-0.88916 -0.10664,-3.91553 -0.1106,-4.94971l-0.02798,-10.1064c-0.07383,-11.51411 -0.07427,-23.02852 -0.00132,-34.54248c0.00161,-2.61826 0.04497,-5.23638 0.13022,-7.85332c0.31816,-9.27217 -0.14458,-18.66841 -0.05127,-27.96313c0.00586,-0.57832 -0.02446,-1.60605 0.20112,-2.12798c0.26074,0.30703 0.23569,0.63135 0.32256,1.09673c0.03955,-0.59209 -0.02197,-1.01221 -0.08042,-1.60518l-0.23306,-0.23833c-0.13257,-0.10605 -4.16133,-0.44824 -4.85317,-0.58945c5.5144,-0.35479 12.26133,-0.04526 17.92441,-0.13242c-0.00337,2.9499 -0.10518,6.70767 0.01318,9.60337c0.20654,-0.62856 0.19629,-1.36143 0.23071,-2.03438l0.02139,0.10063l-0.04834,-0.29604c-0.05288,0.61846 -0.13022,1.41372 0.27773,1.91484l0.30366,-0.00293c0.82075,-0.71045 0.58462,-1.15708 0.71543,-2.29043l0.21475,0.029l0.03809,-3.72568c-0.04277,-1.45591 -0.15908,-3.09888 0.03794,-4.52432c0.09287,-0.67266 0.28037,-0.80361 0.82119,-1.19429c0.03882,2.28267 0.04673,4.56577 0.02358,6.84858l0.04893,24.71631c0.02725,3.36416 0.02637,6.72847 -0.00278,10.09263c-0.00732,1.27471 0.06343,3.57627 -0.0416,4.73452c-0.04819,1.00371 0.05596,1.852 0.15044,2.84971c1.2252,-1.76792 5.06558,-5.87593 6.68862,-7.40742c0.23657,-0.38818 3.73022,-4.1644 4.28716,-4.78037l10.29126,-11.49609c1.98486,-2.37041 4.28906,-4.86533 6.34717,-7.20117c3.29004,-3.76963 6.61816,-7.50674 9.98291,-11.21089c1.63477,-2.14175 4.01514,-4.58306 5.83594,-6.62256c0.56982,-0.63809 0.6958,-0.56367 1.41943,-0.57261z" fill="#0e0e0d"></path><path d="M154.43701,133.43511l0.17285,-0.07441c0.33545,0.18501 0.61377,0.3501 0.9375,0.54946c2.12695,2.99751 4.875,5.87153 7.11182,8.8188c1.56885,2.0666 3.58447,4.08794 5.02148,6.2354c0.72949,0.66943 3.0249,3.58887 3.74707,4.46777l8.24414,10.10449l25.75928,31.43701c1.26855,1.54688 11.79492,14.10791 12.05127,14.896l-0.22559,0.09229c-14.23682,0.06445 -28.82373,-0.28564 -43.03271,0.10547c-2.14014,-2.93701 -4.5542,-5.67187 -6.8042,-8.51221l-15.71631,-19.79004c-0.03955,-0.47607 -0.11572,-0.29443 0.09375,-0.62109l0.4834,0.16699l0.14355,-0.01611c0.44531,0.13184 0.42041,0.1582 0.85254,0.00732c0.36768,-0.85547 -0.57861,-1.13672 -0.54199,-1.86182c0.82764,0.55518 2.66016,3.47168 3.37793,3.54053l0.14355,-0.18457c1.92188,2.34961 3.82764,4.7124 5.71875,7.08838c0.8291,1.0415 2.35547,2.86963 3.06152,3.90527c1.64355,1.82813 3.84375,4.81641 5.4082,6.81592c1.57031,2.00537 3.79688,4.66992 5.19873,6.67969l14.54297,-0.03662c2.93848,0.20801 6.27539,-0.10107 9.18457,0.04102c4.01514,-0.00293 8.33057,-0.09668 12.31348,0.0249c-0.15234,-0.49805 -0.70312,-1.04297 -1.06787,-1.47949c-0.08643,0.41602 -0.09961,0.38965 0.04541,0.78516l-0.14502,-0.07471c-0.7998,-0.30615 -1.13965,-0.45557 -1.64795,-1.12354c-0.77637,-0.77783 -9.15967,-4.18799 -10.82666,-4.96582c-0.82324,-0.31494 -5.06982,-2.26758 -5.68506,-2.64697c-0.56982,-0.22705 -1.35645,-0.62109 -1.93066,-0.88623c-3.70312,-1.74756 -3.65771,-2.1958 -6.16699,-5.40527c-1.82959,-2.34375 -3.64746,-4.69629 -5.45508,-7.05762c-3.43213,-4.41797 -7.0459,-8.53271 -10.41357,-13.05176c-0.90381,-1.05908 -1.8252,-2.26025 -2.66895,-3.375c-5.19287,-6.85547 -10.93359,-13.3623 -16.20557,-20.13721c-1.3623,-1.43027 -2.5166,-3.23481 -3.83774,-4.74097c-1.12251,-1.27969 -0.74795,-0.37954 -1.65718,-0.95625c1.82827,-2.1479 4.50762,-5.05122 6.12187,-7.21333c0.39844,-0.52324 0.93018,-1.27969 1.48828,-1.57178c1.77686,1.85391 3.60352,4.51113 5.31152,6.51387c0.04834,-0.52075 0.03223,-0.61216 -0.01318,-1.11665c0.25928,0.1459 0.21094,0.12905 0.49805,0.22573l0.0791,-0.04102c-0.97119,-1.91162 -2.2749,-3.67866 -3.6123,-5.35166c-0.00293,-0.08862 -0.00439,-0.1771 -0.00732,-0.26572z" fill="#e9d093"></path><path d="M154.43701,133.43511l0.17285,-0.07441c0.33545,0.18501 0.61377,0.3501 0.9375,0.54946c2.12695,2.99751 4.875,5.87153 7.11182,8.8188c1.56885,2.0666 3.58447,4.08794 5.02148,6.2354c0.72949,0.66943 3.0249,3.58887 3.74707,4.46777l8.24414,10.10449l25.75928,31.43701c1.26855,1.54688 11.79492,14.10791 12.05127,14.896l-0.22559,0.09229c-14.23682,0.06445 -28.82373,-0.28564 -43.03271,0.10547c-2.14014,-2.93701 -4.5542,-5.67187 -6.8042,-8.51221l-15.71631,-19.79004c-0.03955,-0.47607 -0.11572,-0.29443 0.09375,-0.62109l0.4834,0.16699l0.14355,-0.01611c0.44531,0.13184 0.42041,0.1582 0.85254,0.00732c0.36768,-0.85547 -0.57861,-1.13672 -0.54199,-1.86182c0.82764,0.55518 2.66016,3.47168 3.37793,3.54053l0.14355,-0.18457c1.92188,2.34961 3.82764,4.7124 5.71875,7.08838c0.8291,1.0415 2.35547,2.86963 3.06152,3.90527c1.64355,1.82813 3.84375,4.81641 5.4082,6.81592c1.57031,2.00537 3.79688,4.66992 5.19873,6.67969l14.54297,-0.03662c2.93848,0.20801 6.27539,-0.10107 9.18457,0.04102c4.01514,-0.00293 8.33057,-0.09668 12.31348,0.0249c-0.15234,-0.49805 -0.70312,-1.04297 -1.06787,-1.47949c-0.63281,-1.3125 -5.77881,-7.28613 -6.9375,-8.69678l-15.6665,-19.12354c-2.26904,-2.75684 -6.62109,-7.72852 -8.55908,-10.5293l-9.02051,-11.24121c-1.81348,-2.25439 -4.03125,-5.14014 -5.9502,-7.22461c-2.41113,-2.70659 -5.17676,-6.25254 -7.53955,-9.09199c0.04834,-0.52075 0.03223,-0.61216 -0.01318,-1.11665c0.25928,0.1459 0.21094,0.12905 0.49805,0.22573l0.0791,-0.04102c-0.97119,-1.91162 -2.2749,-3.67866 -3.6123,-5.35166c-0.00293,-0.08862 -0.00439,-0.1771 -0.00732,-0.26572z" fill="url(#color-3)"></path><path d="M154.43701,133.43511l0.17285,-0.07441c0.33545,0.18501 0.61377,0.3501 0.9375,0.54946c2.12695,2.99751 4.875,5.87153 7.11182,8.8188c1.56885,2.0666 3.58447,4.08794 5.02148,6.2354c0.72949,0.66943 3.0249,3.58887 3.74707,4.46777l8.24414,10.10449l25.75928,31.43701c1.26855,1.54688 11.79492,14.10791 12.05127,14.896l-0.22559,0.09229l-1.24951,-0.76465c-2.81543,-3.11719 -5.5957,-6.88623 -8.34229,-10.16895l-23.98828,-29.1709c-0.26221,0.0293 -0.31494,0.12598 -0.5376,0.27832c-0.45996,-0.16113 -0.51709,-0.19043 -1.01953,-0.25928l0.02197,0.19043c0.11133,0.12891 0.0498,0.03223 0.04248,0.34424c-1.08838,-0.9375 -1.45898,-2.25293 -2.73047,-2.92529l-9.02051,-11.24121c-1.81348,-2.25439 -4.03125,-5.14014 -5.9502,-7.22461c-2.41113,-2.70659 -5.17676,-6.25254 -7.53955,-9.09199c0.04834,-0.52075 0.03223,-0.61216 -0.01318,-1.11665c0.25928,0.1459 0.21094,0.12905 0.49805,0.22573l0.0791,-0.04102c-0.97119,-1.91162 -2.2749,-3.67866 -3.6123,-5.35166c-0.00293,-0.08862 -0.00439,-0.1771 -0.00732,-0.26572z" fill="url(#color-4)"></path><path d="M154.43701,133.43511l0.17285,-0.07441c0.33545,0.18501 0.61377,0.3501 0.9375,0.54946c2.12695,2.99751 4.875,5.87153 7.11182,8.8188c1.56885,2.0666 3.58447,4.08794 5.02148,6.2354c-0.54492,-0.3501 -0.68262,-0.48193 -1.10889,-0.97412l-0.07324,0.14209c0.66064,0.99463 2.00684,2.21338 2.05811,3.06738c1.24658,1.69629 3.01758,3.50977 4.07959,5.08594c-2.48877,-2.12842 -4.39746,-5.59863 -6.73242,-7.93506c-0.53174,-0.53174 -0.27979,-1.05029 -1.0459,-1.33008c-0.52588,0.22119 -0.37354,0.04102 -0.56543,0.47168c0.13477,0.92432 1.5542,1.80615 2.15918,2.74512l-0.12744,-0.00146c-0.79248,-0.57275 -0.96826,-0.9624 -1.64648,-1.58203l-0.19482,0.36621c-2.41113,-2.70659 -5.17676,-6.25254 -7.53955,-9.09199c0.04834,-0.52075 0.03223,-0.61216 -0.01318,-1.11665c0.25928,0.1459 0.21094,0.12905 0.49805,0.22573l0.0791,-0.04102c-0.97119,-1.91162 -2.2749,-3.67866 -3.6123,-5.35166c-0.00293,-0.08862 -0.00439,-0.1771 -0.00732,-0.26572z" fill="#e9d093"></path><path d="M154.43701,133.43511l0.17285,-0.07441c0.33545,0.18501 0.61377,0.3501 0.9375,0.54946c2.12695,2.99751 4.875,5.87153 7.11182,8.8188c1.56885,2.0666 3.58447,4.08794 5.02148,6.2354c-0.54492,-0.3501 -0.68262,-0.48193 -1.10889,-0.97412l-0.07324,0.14209c0.66064,0.99463 2.00684,2.21338 2.05811,3.06738c-2.36279,-3.00732 -4.76807,-5.98022 -7.21289,-8.91973c-2.1665,-2.59409 -5.18408,-6.01348 -6.90674,-8.84487z" fill="#caa768"></path><path d="M156.93018,138.81138c0.25928,0.1459 0.21094,0.12905 0.49805,0.22573l0.0791,-0.04102c0.19922,1.1272 5.9707,7.90869 7.17041,9.65771l-0.19482,0.36621c-2.41113,-2.70659 -5.17676,-6.25254 -7.53955,-9.09199c0.04834,-0.52075 0.03223,-0.61216 -0.01318,-1.11665z" fill="#caa768"></path><path d="M152.73486,179.44043c0.82764,0.55518 2.66016,3.47168 3.37793,3.54053l0.14355,-0.18457c1.92188,2.34961 3.82764,4.7124 5.71875,7.08838c0.8291,1.0415 2.35547,2.86963 3.06152,3.90527c1.64355,1.82813 3.84375,4.81641 5.4082,6.81592c1.57031,2.00537 3.79688,4.66992 5.19873,6.67969c-0.83203,0.14502 -0.73975,0.20361 -1.60254,-0.30762c0.27246,0.49658 0.08643,0.30908 0.57275,0.58594c2.00391,0.05859 4.26563,-0.26807 6.19922,-0.03662c0.42041,0.0498 0.33398,0.11865 0.85107,0.09521c-0.16553,0.53613 -0.33105,0.66357 -0.52734,1.19238c-1.01807,0.00146 -5.63672,0.06006 -6.48633,0.25342c-1.38721,-1.91602 -3.7002,-4.61719 -5.21484,-6.50684l-11.00977,-13.70801c-1.93945,-2.41699 -4.16162,-5.0874 -6.00146,-7.55859c0.44531,0.13184 0.42041,0.1582 0.85254,0.00732c0.36768,-0.85547 -0.57861,-1.13672 -0.54199,-1.86182z" fill="#caa768"></path><path d="M165.03662,193.79004c1.64355,1.82813 3.84375,4.81641 5.4082,6.81592c1.57031,2.00537 3.79688,4.66992 5.19873,6.67969c-0.83203,0.14502 -0.73975,0.20361 -1.60254,-0.30762c-0.56104,-1.44434 -1.45459,-1.87061 -2.1167,-2.98096c-1.92627,-3.23437 -4.39014,-5.81689 -6.63428,-8.78174c1.05469,1.05322 1.90869,2.02002 2.88574,3.13623c-0.65039,-0.96973 -3.08789,-3.62402 -3.13916,-4.56152z" fill="#ad884c"></path><path d="M151.70361,181.76514c-0.03955,-0.47607 -0.11572,-0.29443 0.09375,-0.62109l0.4834,0.16699l0.14355,-0.01611c1.83984,2.47119 4.06201,5.1416 6.00146,7.55859l11.00977,13.70801c1.51465,1.88965 3.82764,4.59082 5.21484,6.50684c0.82764,0.2373 7.85596,0.09668 9.21826,0.11865c10.61133,0.17139 21.55811,-0.51123 32.13867,0.01025l1.24951,0.76465c-14.23682,0.06445 -28.82373,-0.28564 -43.03271,0.10547c-2.14014,-2.93701 -4.5542,-5.67187 -6.8042,-8.51221z" fill="#63431c"></path><path d="M199.37109,207.29004c4.01514,-0.00293 8.33057,-0.09668 12.31348,0.0249l0.38525,0.19336l-0.14209,0.15674c-1.51758,0.18896 -11.74512,0.24316 -12.55664,-0.375z" fill="#caa768"></path><path d="M171.73828,159.33691c2.20898,2.36279 4.86328,5.90918 6.96826,8.45068c1.15869,1.40039 3.83936,4.56738 4.78125,5.94434l-0.11865,0.5625c1.08838,1.29199 4.8501,5.62939 5.52393,6.77783c-0.68408,-0.21533 -0.78955,-0.9873 -1.23486,-1.0708c-0.28711,0.51563 -0.13916,1.60107 -0.10693,2.20166c0.18164,3.29443 -1.28027,10.25684 1.19824,12.86719c-0.04834,0.34424 0.0249,0.20215 -0.20508,0.43359c0.60352,0.33691 1.27881,0.73828 1.89258,1.03711l-0.01025,0.38232c-3.70312,-1.74756 -3.65771,-2.1958 -6.16699,-5.40527c-1.82959,-2.34375 -3.64746,-4.69629 -5.45508,-7.05762c-3.43213,-4.41797 -7.0459,-8.53271 -10.41357,-13.05176c0.66797,0.11426 3.76758,4.39746 4.42236,5.23975l0.19922,-0.02783c-0.1377,-6.01904 -0.81006,-8.68506 0.38818,-14.8623c-0.52588,-0.57275 -1.56592,-1.70508 -1.6626,-2.42139z" fill="url(#color-5)"></path><path d="M188.54443,195.50391c-2.06543,-1.14844 -4.61719,-5.45508 -6.2915,-7.30811c-0.59766,-0.66064 -3.54785,-4.47656 -3.65771,-4.91895c0.31055,0.15088 0.15234,0.13623 0.47168,0.06299c1.54834,-3.62256 0.22705,-8.6792 1.76221,-12.09814c0.8335,1.02979 1.68018,2.04639 2.54004,3.05273c1.08838,1.29199 4.8501,5.62939 5.52393,6.77783c-0.68408,-0.21533 -0.78955,-0.9873 -1.23486,-1.0708c-0.28711,0.51563 -0.13916,1.60107 -0.10693,2.20166c0.18164,3.29443 -1.28027,10.25684 1.19824,12.86719c-0.04834,0.34424 0.0249,0.20215 -0.20508,0.43359z" fill="url(#color-6)"></path><path d="M188.54443,195.50391c0.22998,-0.23145 0.15674,-0.08936 0.20508,-0.43359c-2.47852,-2.61035 -1.0166,-9.57275 -1.19824,-12.86719c-0.03223,-0.60059 -0.18018,-1.68604 0.10693,-2.20166c0.44531,0.0835 0.55078,0.85547 1.23486,1.0708c0.72803,0.67822 1.51904,1.64063 2.14893,2.42871c2.73926,3.41895 5.73779,6.70898 8.42139,10.16455c1.28613,1.65234 2.48584,2.98682 2.22949,5.23975c-0.11133,0.97266 -0.43359,1.67285 -0.6167,2.59131c-0.97119,-0.04395 -2.42725,-1.39014 -3.03369,-1.04004c-0.82324,-0.31494 -5.06982,-2.26758 -5.68506,-2.64697c-0.56982,-0.22705 -1.35645,-0.62109 -1.93066,-0.88623l0.01025,-0.38232c-0.61377,-0.29883 -1.28906,-0.7002 -1.89258,-1.03711z" fill="url(#color-7)"></path><path d="M190.43701,196.54102c0.68701,0.33984 1.56738,0.6416 1.92041,1.26855c-0.56982,-0.22705 -1.35645,-0.62109 -1.93066,-0.88623z" fill="#9c7742"></path><path d="M150.14355,134.98594c0.39844,-0.52324 0.93018,-1.27969 1.48828,-1.57178c1.77686,1.85391 3.60352,4.51113 5.31152,6.51387c2.36279,2.83945 5.12842,6.3854 7.53955,9.09199c1.91895,2.08447 4.13672,4.97021 5.9502,7.22461l9.02051,11.24121c1.93799,2.80078 6.29004,7.77246 8.55908,10.5293l15.6665,19.12354c1.15869,1.41064 6.30469,7.38428 6.9375,8.69678c-0.08643,0.41602 -0.09961,0.38965 0.04541,0.78516l-0.14502,-0.07471c-0.7998,-0.30615 -1.13965,-0.45557 -1.64795,-1.12354c-0.77637,-0.77783 -9.15967,-4.18799 -10.82666,-4.96582c0.60645,-0.3501 2.0625,0.99609 3.03369,1.04004c0.18311,-0.91846 0.50537,-1.61865 0.6167,-2.59131c0.25635,-2.25293 -0.94336,-3.5874 -2.22949,-5.23975c-2.68359,-3.45557 -5.68213,-6.74561 -8.42139,-10.16455c-0.62988,-0.78809 -1.4209,-1.75049 -2.14893,-2.42871c-0.67383,-1.14844 -4.43555,-5.48584 -5.52393,-6.77783l0.11865,-0.5625c-0.94189,-1.37695 -3.62256,-4.54395 -4.78125,-5.94434c-2.10498,-2.5415 -4.75928,-6.08789 -6.96826,-8.45068c-0.09961,-0.19336 -2.26025,-2.83887 -2.47559,-3.10693l-7.94531,-9.68555l-6.64453,-8.23945c-0.83203,-1.01118 -2.15186,-2.69443 -3.0293,-3.54243l-0.16992,-0.1396c-0.64453,0.37456 -0.61523,0.31597 -1.33008,0.36299z" fill="#63431c"></path><path d="M199.7666,193.43115c0.26807,0.27832 1.3374,1.49268 1.50732,1.75342c0.90234,1.39307 8.12256,9.54199 8.21191,10.34766c-0.38525,0.06006 -0.19629,0.04834 -0.6167,-0.10986c-0.77637,-0.77783 -9.15967,-4.18799 -10.82666,-4.96582c0.60645,-0.3501 2.0625,0.99609 3.03369,1.04004c0.18311,-0.91846 0.50537,-1.61865 0.6167,-2.59131c0.25635,-2.25293 -0.94336,-3.5874 -2.22949,-5.23975z" fill="url(#color-8)"></path><path d="M183.48779,173.73193c1.25098,1.41504 2.50488,2.9502 3.68262,4.42822c4.10303,5.15039 8.51514,10.11035 12.59619,15.271l-0.30322,0.23438c-2.68359,-3.45557 -5.68213,-6.74561 -8.42139,-10.16455c-0.62988,-0.78809 -1.4209,-1.75049 -2.14893,-2.42871c-0.67383,-1.14844 -4.43555,-5.48584 -5.52393,-6.77783z" fill="#ad884c"></path><path d="M150.14355,134.98594c0.71484,-0.04702 0.68555,0.01157 1.33008,-0.36299l0.16992,0.1396c-0.16406,0.91201 1.81055,2.8894 2.43164,3.61758c-3.24023,2.00933 -3.8833,4.29858 -5.77002,7.59917c0.42334,0.48882 1.24951,1.2917 1.21143,1.91719c-1.3623,-1.43027 -2.5166,-3.23481 -3.83774,-4.74097c-1.12251,-1.27969 -0.74795,-0.37954 -1.65718,-0.95625c1.82827,-2.1479 4.50762,-5.05122 6.12187,-7.21333z" fill="#caa768"></path><path d="M173.05371,66.9709c7.62451,-0.1144 31.75342,0.14502 40.85449,0.01157c0.06006,0.04438 0.12012,0.08862 0.17871,0.13286l-0.42041,0.31099l-0.71777,0.21665c-1.42529,1.13452 -2.3584,2.5582 -3.5874,3.69302c0.39111,-0.93179 0.7251,-1.17642 1.41943,-1.89448c-0.81445,-0.30293 -1.15576,-0.54961 -1.94238,-0.24814l0.04834,0.39492l-0.14209,0.03179l-0.16553,-0.10679l-0.2666,0.11895c-0.90088,-0.07251 -2.28369,-0.04995 -3.20508,-0.05698c-0.57422,0.74722 -0.80273,0.75674 -1.75928,0.87598c-0.16699,0.02095 -0.33398,0.04028 -0.50098,0.05786l-0.00439,-0.25635c-0.67529,0.06284 -1.58057,0.17549 -2.23975,0.1938c-1.05762,0.05244 -2.11084,0.16597 -3.15527,0.33984c-4.33008,1.19004 -12.69727,3.47183 -15.9917,6.42568c-1.47949,1.32686 -3.91553,4.68091 -5.49902,6.00088c-1.62744,2.07554 -4.08545,4.54028 -5.89453,6.53936l-9.52881,10.72134c-3.83203,4.25288 -7.63477,8.53198 -11.4082,12.83672c-3.05068,3.50684 -6.10166,7.22827 -9.27114,10.62422c0.35127,1.14595 -0.9561,1.28906 -0.93926,2.9335c-0.27803,0.31523 -0.94395,1.1272 -1.24541,1.32378c-0.7207,0.92402 -3.0375,3.6668 -3.90894,4.36201l0.45688,-1.31133l-0.30952,-0.11045l0.39507,-0.2606l-0.01597,0.15176l-0.13301,-0.0854l0.12832,-0.10503c-0.43857,0.32944 -0.74355,0.55005 -1.23003,0.79907c-0.26514,0.23218 -0.83979,0.85532 -1.00518,1.15781l-0.61348,0.02681c0.66636,-0.74546 1.65308,-1.78813 2.20269,-2.57417c0.10225,-0.21577 0.20435,-0.43154 0.30645,-0.64746c-0.00864,-1.95996 -0.93794,-4.29771 -1.58833,-6.1563c-0.36782,-1.05073 -1.54424,-2.06646 -2.23447,-2.98389l0.07866,-0.29502l-0.10605,-0.05771l-1.6207,1.63169c-1.48008,1.56621 -2.94067,3.15059 -4.38149,4.75283c0.02842,-2.20986 0.0397,-4.42002 0.03384,-6.63003c-0.00601,-1.03154 -0.09258,-3.07017 0.06533,-4.01689c0.62915,-1.19868 -0.32754,-10.23677 0.33823,-12.8647c0.173,-1.97607 0.05317,-6.52324 0.04248,-8.61973c-0.0022,-4.98105 -0.04292,-9.96211 -0.12202,-14.94258c-0.04219,-2.20005 -0.25195,-6.6561 -0.02856,-8.68315l0.21475,-0.62695c-0.86382,-0.22192 -10.69512,-0.19512 -11.83623,-0.03823c-0.21812,0.23833 -0.15146,0.11792 -0.23965,0.33647l-0.23306,-0.23833c-0.13257,-0.10605 -4.16133,-0.44824 -4.85317,-0.58945c5.5144,-0.35479 12.26133,-0.04526 17.92441,-0.13242c-0.00337,2.9499 -0.10518,6.70767 0.01318,9.60337c0.20654,-0.62856 0.19629,-1.36143 0.23071,-2.03438l0.02139,0.10063l-0.04834,-0.29604c-0.05288,0.61846 -0.13022,1.41372 0.27773,1.91484l0.30366,-0.00293c0.82075,-0.71045 0.58462,-1.15708 0.71543,-2.29043l0.21475,0.029l0.03809,-3.72568c-0.04277,-1.45591 -0.15908,-3.09888 0.03794,-4.52432c0.09287,-0.67266 0.28037,-0.80361 0.82119,-1.19429c0.03882,2.28267 0.04673,4.56577 0.02358,6.84858l0.04893,24.71631c0.02725,3.36416 0.02637,6.72847 -0.00278,10.09263c-0.00732,1.27471 0.06343,3.57627 -0.0416,4.73452c-0.04819,1.00371 0.05596,1.852 0.15044,2.84971c1.2252,-1.76792 5.06558,-5.87593 6.68862,-7.40742c0.23657,-0.38818 3.73022,-4.1644 4.28716,-4.78037l10.29126,-11.49609c1.98486,-2.37041 4.28906,-4.86533 6.34717,-7.20117c3.29004,-3.76963 6.61816,-7.50674 9.98291,-11.21089c1.63477,-2.14175 4.01514,-4.58306 5.83594,-6.62256c0.56982,-0.63809 0.6958,-0.56367 1.41943,-0.57261z" fill="#e9d093"></path><path d="M173.05371,66.9709c7.62451,-0.1144 31.75342,0.14502 40.85449,0.01157c0.06006,0.04438 0.12012,0.08862 0.17871,0.13286l-0.42041,0.31099l-0.71777,0.21665c-1.42529,1.13452 -2.3584,2.5582 -3.5874,3.69302c0.39111,-0.93179 0.7251,-1.17642 1.41943,-1.89448c-0.81445,-0.30293 -1.15576,-0.54961 -1.94238,-0.24814l0.04834,0.39492l-0.14209,0.03179l-0.16553,-0.10679l-0.2666,0.11895c-0.90088,-0.07251 -2.28369,-0.04995 -3.20508,-0.05698c-0.57422,0.74722 -0.80273,0.75674 -1.75928,0.87598c-0.16699,0.02095 -0.33398,0.04028 -0.50098,0.05786l-0.00439,-0.25635c-0.67529,0.06284 -1.58057,0.17549 -2.23975,0.1938l-0.2124,-0.40957l-18.09229,0.03472c-2.72314,0.00571 -5.82861,-0.08628 -8.51514,0.00366c-4.48096,4.74434 -9.29443,10.54351 -13.59082,15.48765c-5.77002,6.56733 -11.57666,13.10127 -17.42183,19.60137c-2.66924,2.97275 -5.48496,6.26982 -8.17368,9.15732c-1.15576,1.22168 -5.30728,5.70718 -6.22852,6.99375l0.10371,0.41821c-1.48008,1.56621 -2.94067,3.15059 -4.38149,4.75283c0.02842,-2.20986 0.0397,-4.42002 0.03384,-6.63003c-0.00601,-1.03154 -0.09258,-3.07017 0.06533,-4.01689c0.62915,-1.19868 -0.32754,-10.23677 0.33823,-12.8647c0.173,-1.97607 0.05317,-6.52324 0.04248,-8.61973c-0.0022,-4.98105 -0.04292,-9.96211 -0.12202,-14.94258c-0.04219,-2.20005 -0.25195,-6.6561 -0.02856,-8.68315l0.21475,-0.62695c-0.86382,-0.22192 -10.69512,-0.19512 -11.83623,-0.03823c-0.21812,0.23833 -0.15146,0.11792 -0.23965,0.33647l-0.23306,-0.23833c-0.13257,-0.10605 -4.16133,-0.44824 -4.85317,-0.58945c5.5144,-0.35479 12.26133,-0.04526 17.92441,-0.13242c-0.00337,2.9499 -0.10518,6.70767 0.01318,9.60337c0.20654,-0.62856 0.19629,-1.36143 0.23071,-2.03438l0.02139,0.10063l-0.04834,-0.29604c-0.05288,0.61846 -0.13022,1.41372 0.27773,1.91484l0.30366,-0.00293c0.82075,-0.71045 0.58462,-1.15708 0.71543,-2.29043l0.21475,0.029l0.03809,-3.72568c-0.04277,-1.45591 -0.15908,-3.09888 0.03794,-4.52432c0.09287,-0.67266 0.28037,-0.80361 0.82119,-1.19429c0.03882,2.28267 0.04673,4.56577 0.02358,6.84858l0.04893,24.71631c0.02725,3.36416 0.02637,6.72847 -0.00278,10.09263c-0.00732,1.27471 0.06343,3.57627 -0.0416,4.73452c-0.04819,1.00371 0.05596,1.852 0.15044,2.84971c1.2252,-1.76792 5.06558,-5.87593 6.68862,-7.40742c0.23657,-0.38818 3.73022,-4.1644 4.28716,-4.78037l10.29126,-11.49609c1.98486,-2.37041 4.28906,-4.86533 6.34717,-7.20117c3.29004,-3.76963 6.61816,-7.50674 9.98291,-11.21089c1.63477,-2.14175 4.01514,-4.58306 5.83594,-6.62256c0.56982,-0.63809 0.6958,-0.56367 1.41943,-0.57261z" fill="#63431c"></path><path d="M128.02266,67.02026c0.03882,2.28267 0.04673,4.56577 0.02358,6.84858l0.04893,24.71631c0.02725,3.36416 0.02637,6.72847 -0.00278,10.09263c-0.00732,1.27471 0.06343,3.57627 -0.0416,4.73452l-0.16992,-0.06973c-0.17285,-0.18047 -0.37075,-0.28154 -0.58799,-0.42173c0.00586,0.46011 -0.30308,4.65557 -0.39126,5.0562l0.18164,0.98115c-0.49746,0.33618 -0.23877,0.27993 -0.78516,0.24111c-0.27495,-0.24067 -0.29048,-0.21709 -0.40327,-0.55679c-0.57744,1.83501 0.23379,2.35518 -0.10752,3.7998c-0.07207,0.30498 -0.13389,-0.02842 -0.20171,0.61846l-0.35098,-1.03257c-0.06343,0.47065 -0.08613,1.05044 0.17139,1.46499l-0.17124,0.1415c-0.37134,-0.64175 0.11982,-30.43711 0.16143,-33.93955c-0.06138,-3.27847 -0.0813,-7.41519 0.01392,-10.65132c0.20654,-0.62856 0.19629,-1.36143 0.23071,-2.03438l0.02139,0.10063l-0.04834,-0.29604c-0.05288,0.61846 -0.13022,1.41372 0.27773,1.91484l0.30366,-0.00293c0.82075,-0.71045 0.58462,-1.15708 0.71543,-2.29043l0.21475,0.029l0.03809,-3.72568c-0.04277,-1.45591 -0.15908,-3.09888 0.03794,-4.52432c0.09287,-0.67266 0.28037,-0.80361 0.82119,-1.19429z" fill="url(#color-9)"></path><path d="M128.02266,67.02026c0.03882,2.28267 0.04673,4.56577 0.02358,6.84858l0.04893,24.71631c0.02725,3.36416 0.02637,6.72847 -0.00278,10.09263c-0.00732,1.27471 0.06343,3.57627 -0.0416,4.73452l-0.16992,-0.06973c-0.17285,-0.18047 -0.37075,-0.28154 -0.58799,-0.42173l-0.01523,-0.13052c-0.13989,-7.92891 0.06489,-16.05601 -0.14458,-23.9417c-0.12261,-0.72642 -0.13037,-0.85166 -0.54346,-1.45283l-0.26997,-0.08481c-0.73843,0.75337 -0.47944,1.42573 -0.92344,2.38418c-0.06138,-3.27847 -0.0813,-7.41519 0.01392,-10.65132c0.20654,-0.62856 0.19629,-1.36143 0.23071,-2.03438l0.02139,0.10063l-0.04834,-0.29604c-0.05288,0.61846 -0.13022,1.41372 0.27773,1.91484l0.30366,-0.00293c0.82075,-0.71045 0.58462,-1.15708 0.71543,-2.29043l0.21475,0.029l0.03809,-3.72568c-0.04277,-1.45591 -0.15908,-3.09888 0.03794,-4.52432c0.09287,-0.67266 0.28037,-0.80361 0.82119,-1.19429z" fill="url(#color-10)"></path><path d="M125.41011,79.04385c0.20654,-0.62856 0.19629,-1.36143 0.23071,-2.03438l0.02139,0.10063l-0.04834,-0.29604c-0.05288,0.61846 -0.13022,1.41372 0.27773,1.91484l0.30366,-0.00293c0.82075,-0.71045 0.58462,-1.15708 0.71543,-2.29043l0.21475,0.029c0.04087,3.77021 0.16772,8.69956 0.00762,12.38408c-0.12261,-0.72642 -0.13037,-0.85166 -0.54346,-1.45283l-0.26997,-0.08481c-0.73843,0.75337 -0.47944,1.42573 -0.92344,2.38418c-0.06138,-3.27847 -0.0813,-7.41519 0.01392,-10.65132z" fill="#f7e4ad"></path><path d="M128.02266,67.02026c0.03882,2.28267 0.04673,4.56577 0.02358,6.84858c-0.48794,-1.38384 0.08672,-4.20586 -0.23203,-4.96919c-0.99932,1.5728 -0.09932,2.29321 -0.65068,3.83921c-0.04277,-1.45591 -0.15908,-3.09888 0.03794,-4.52432c0.09287,-0.67266 0.28037,-0.80361 0.82119,-1.19429z" fill="#ad884c"></path><path d="M126.90161,117.97705c-0.07046,-0.88872 -0.21489,-4.7436 0.17988,-5.35063l0.19614,0.16392l0.01523,0.13052c0.00586,0.46011 -0.30308,4.65557 -0.39126,5.0562z" fill="#e9d093"></path><path d="M165.79834,74.16606c1.63477,-2.14175 4.01514,-4.58306 5.83594,-6.62256c0.56982,-0.63809 0.6958,-0.56367 1.41943,-0.57261c0.85107,0.2313 1.48682,0.20361 2.36279,0.22632c-0.68408,0.01421 -2.85498,-0.02476 -3.33838,0.2272l0.06738,0.17021c0.95361,0.24463 3.01758,-0.09858 4.15869,0.21123l-3.64893,0.05068c-1.93506,3.47432 -7.38281,7.94678 -8.45361,11.79683c-4.49561,4.99263 -8.94727,10.02334 -13.35645,15.09141c-0.76025,0.06123 -0.62549,-0.46802 -1.45605,-0.68057c-0.55518,0.62271 -0.99463,1.0853 -1.59082,1.66831c0.43213,-0.69067 1.27148,-1.61646 1.82813,-2.26772l-0.1582,-0.88667c1.98486,-2.37041 4.28906,-4.86533 6.34717,-7.20117c3.29004,-3.76963 6.61816,-7.50674 9.98291,-11.21089z" fill="#f7e4ad"></path><path d="M165.79834,74.16606c-0.27686,1.21187 -3.40576,4.07915 -4.4165,5.348l0.19629,-0.16494c1.38574,-1.17788 2.66016,-2.72432 3.88477,-3.74326l0.05566,0.1251c-5.49316,5.73311 -10.79297,11.64756 -15.89209,17.73384l-0.1582,-0.88667c1.98486,-2.37041 4.28906,-4.86533 6.34717,-7.20117c3.29004,-3.76963 6.61816,-7.50674 9.98291,-11.21089z" fill="#e9d093"></path><path d="M173.05371,66.9709c7.62451,-0.1144 31.75342,0.14502 40.85449,0.01157c0.06006,0.04438 0.12012,0.08862 0.17871,0.13286l-0.42041,0.31099l-0.71777,0.21665c-1.42529,1.13452 -2.3584,2.5582 -3.5874,3.69302c0.39111,-0.93179 0.7251,-1.17642 1.41943,-1.89448c-0.81445,-0.30293 -1.15576,-0.54961 -1.94238,-0.24814l0.04834,0.39492l-0.14209,0.03179l-0.16553,-0.10679l-0.2666,0.11895c-0.90088,-0.07251 -2.28369,-0.04995 -3.20508,-0.05698c-4.11475,-0.15381 -8.39355,0.00923 -12.52295,-0.11558c-0.64746,-0.51387 -3.18457,0.1125 -4.38135,-0.24814c-0.18604,-0.4585 -0.30908,-0.63604 -0.22705,-1.1231c0.41309,-0.26294 3.06445,-0.03647 4.00195,-0.25313c-4.9541,-0.23394 -10.61719,0.15322 -15.67383,-0.02944c-1.14111,-0.30981 -3.20508,0.0334 -4.15869,-0.21123l-0.06738,-0.17021c0.4834,-0.25195 2.6543,-0.21299 3.33838,-0.2272c-0.87598,-0.02271 -1.51172,0.00498 -2.36279,-0.22632z" fill="#9c7742"></path><path d="M173.05371,66.9709c7.62451,-0.1144 31.75342,0.14502 40.85449,0.01157c0.06006,0.04438 0.12012,0.08862 0.17871,0.13286l-0.42041,0.31099l-0.71777,0.21665c-6.30762,0.29458 -12.62109,0.03047 -18.93164,0.14238c-0.63574,0.01128 -1.41943,-0.01406 -2.03906,0.04995c-4.9541,-0.23394 -10.61719,0.15322 -15.67383,-0.02944c-1.14111,-0.30981 -3.20508,0.0334 -4.15869,-0.21123l-0.06738,-0.17021c0.4834,-0.25195 2.6543,-0.21299 3.33838,-0.2272c-0.87598,-0.02271 -1.51172,0.00498 -2.36279,-0.22632z" fill="#e9d093"></path><path d="M134.88984,108.85459c0.23657,-0.38818 3.73022,-4.1644 4.28716,-4.78037l10.29126,-11.49609l0.1582,0.88667c-0.55664,0.65127 -1.396,1.57705 -1.82812,2.26772c0.59619,-0.58301 1.03564,-1.04561 1.59082,-1.66831c0.83057,0.21255 0.6958,0.7418 1.45605,0.68057c-1.5542,1.73335 -3.19629,3.51592 -4.69087,5.2897c-1.98574,1.68179 -3.97104,4.06055 -5.93232,5.81191c-1.87808,1.6771 -3.57847,2.82056 -5.36733,4.66348c-2.53198,2.60845 -5.1709,6.01084 -7.77144,8.44834l-0.18164,-0.98115c0.08818,-0.40063 0.39712,-4.59609 0.39126,-5.0562c0.21724,0.14019 0.41514,0.24126 0.58799,0.42173l0.16992,0.06973c-0.04819,1.00371 0.05596,1.852 0.15044,2.84971c1.2252,-1.76792 5.06558,-5.87593 6.68862,-7.40742z" fill="url(#color-11)"></path><path d="M134.88984,108.85459c-0.21006,0.97075 -1.27822,1.67402 -1.95806,2.79785l0.82427,-0.85195c-0.81724,1.15342 -4.82095,5.76313 -5.83726,6.08789c-0.0687,-0.97632 0.09771,-1.79912 -0.44956,-2.49272c-0.01348,-0.58286 -0.03208,-0.67778 0.41162,-1.05308l0.16992,0.06973c-0.04819,1.00371 0.05596,1.852 0.15044,2.84971c1.2252,-1.76792 5.06558,-5.87593 6.68862,-7.40742z" fill="#caa768"></path><path d="M176.3042,67.80586c5.05664,0.18267 10.71973,-0.20449 15.67383,0.02944c-0.9375,0.21665 -3.58887,-0.00981 -4.00195,0.25313c-0.08203,0.48706 0.04102,0.6646 0.22705,1.1231c1.19678,0.36064 3.73389,-0.26572 4.38135,0.24814c-2.48584,0.14956 -5.57959,0.05142 -8.10352,0.02725c-3.67822,-0.03501 -7.35645,-0.04687 -11.03467,-0.03574c-3.13037,3.33735 -6.00586,6.96768 -9.24463,10.2022c1.0708,-3.85005 6.51855,-8.32251 8.45361,-11.79683z" fill="url(#color-12)"></path><path d="M127.08325,118.9582c2.60054,-2.4375 5.23945,-5.83989 7.77144,-8.44834c1.78887,-1.84292 3.48926,-2.98638 5.36733,-4.66348c1.96128,-1.75137 3.94658,-4.13013 5.93232,-5.81191c-0.27656,1.02158 -3.69199,4.47979 -4.63066,5.54604c-3.2228,3.73037 -6.49966,7.41401 -9.82925,11.04946l-1.73027,1.84644c-1.44844,1.5895 -3.08203,3.52075 -4.55815,5.0168c-0.25752,-0.41455 -0.23481,-0.99434 -0.17139,-1.46499l0.35098,1.03257c0.06782,-0.64688 0.12964,-0.31348 0.20171,-0.61846c0.34131,-1.44463 -0.46992,-1.96479 0.10752,-3.7998c0.11279,0.3397 0.12832,0.31611 0.40327,0.55679c0.54639,0.03882 0.2877,0.09507 0.78516,-0.24111z" fill="url(#color-13)"></path><path d="M129.96416,118.47642c-0.16582,-0.36196 -0.10649,-0.23965 -0.09272,-0.68701c0.43008,-0.67954 0.76963,-1.20498 1.51729,-1.56987l0.30571,0.41045z" fill="#caa768"></path><path d="M124.52798,102.97485c0.0835,0.95127 0.11045,1.99937 0.09712,2.95459c-0.09023,6.45454 0.21841,13.09292 -0.11177,19.52783c1.33022,-1.3481 2.5812,-2.74116 3.85503,-4.14185l0.10371,0.41821c-1.48008,1.56621 -2.94067,3.15059 -4.38149,4.75283c0.02842,-2.20986 0.0397,-4.42002 0.03384,-6.63003c-0.00601,-1.03154 -0.09258,-3.07017 0.06533,-4.01689c0.62915,-1.19868 -0.32754,-10.23677 0.33823,-12.8647z" fill="#caa768"></path><path d="M200.39063,70.03696c0.65039,-0.0082 1.94678,-0.10811 2.45215,0.21577c-0.67529,0.06284 -1.58057,0.17549 -2.23975,0.1938z" fill="#ad884c"></path><path d="M178.31982,70.89873c-0.6665,0.00117 -1.33301,-0.00908 -1.99951,-0.03062c1.19385,-0.31494 19.66406,-0.34248 21.12744,-0.08174c-4.33008,1.19004 -12.69727,3.47183 -15.9917,6.42568c-1.47949,1.32686 -3.91553,4.68091 -5.49902,6.00088c0.4541,-1.17671 4.21875,-5.08872 5.30127,-6.21958c-0.1333,-0.10591 -0.26514,-0.2127 -0.39697,-0.32051c-1.50732,-1.2375 -2.37012,-3.90044 -2.5415,-5.77412z" fill="url(#color-14)"></path><path d="M134.59687,114.32168l0.01392,0.37881l0.2543,-0.12393c1.70889,0.64497 1.47583,6.16494 1.94194,7.89434c0.28198,1.04692 -0.3252,2.85688 -0.20435,4.05205l0.20625,-0.1563c0.24653,-0.18413 0.14077,-0.12817 0.33779,-0.21299c-0.41631,0.70913 -2.90054,3.55781 -3.51021,4.08867c0.10225,-0.21577 0.20435,-0.43154 0.30645,-0.64746c-0.00864,-1.95996 -0.93794,-4.29771 -1.58833,-6.1563c-0.36782,-1.05073 -1.54424,-2.06646 -2.23447,-2.98389l0.07866,-0.29502l-0.10605,-0.05771l-1.6207,1.63169l-0.10371,-0.41821c0.92124,-1.28657 5.07275,-5.77207 6.22852,-6.99375z" fill="#caa768"></path><path d="M136.63374,127.60415c0.95991,-1.22505 2.1063,-2.58208 3.22061,-3.66958c0.35127,1.14595 -0.9561,1.28906 -0.93926,2.9335c-0.27803,0.31523 -0.94395,1.1272 -1.24541,1.32378c-0.7207,0.92402 -3.0375,3.6668 -3.90894,4.36201l0.45688,-1.31133l-0.30952,-0.11045l0.39507,-0.2606l-0.01597,0.15176l-0.13301,-0.0854l0.12832,-0.10503c-0.43857,0.32944 -0.74355,0.55005 -1.23003,0.79907c0.87349,-1.11445 2.59395,-3.06841 3.58125,-4.02773z" fill="#9c7742"></path><path d="M112.55874,70.40068c0.08818,-0.21855 0.02153,-0.09814 0.23965,-0.33647c1.14111,-0.15688 10.97241,-0.18369 11.83623,0.03823l-0.21475,0.62695c-0.22339,2.02705 -0.01362,6.48311 0.02856,8.68315c0.0791,4.98047 0.11982,9.96152 0.12202,14.94258c0.01069,2.09648 0.13052,6.64365 -0.04248,8.61973c-0.66577,2.62793 0.29092,11.66602 -0.33823,12.8647l-0.07925,-0.64395c-0.59238,0.88813 -3.16494,1.6938 -4.18799,2.15142c-0.81226,0.36343 -4.67373,1.86328 -5.16914,2.2585c-0.60469,0.48223 -0.28799,14.80503 -0.427,16.81289l-0.10649,-0.63823c-0.21782,1.08281 0.30908,3.81504 -0.39741,4.28276l0.00469,-0.24258l-0.47344,-0.03281c-0.61816,-0.62798 -0.4771,-2.61152 -0.68467,-3.64028c-0.03516,-5.75669 -0.03545,-11.51338 -0.00059,-17.26992c-0.09404,-1.40229 -0.04146,-3.63164 -0.04365,-5.08901l0.00952,-9.55664c0.01377,-10.66611 0.1374,-21.5833 0.00483,-32.22583c0.03955,-0.59209 -0.02197,-1.01221 -0.08042,-1.60518z" fill="#e9d093"></path><path d="M112.55874,70.40068c0.08818,-0.21855 0.02153,-0.09814 0.23965,-0.33647c1.14111,-0.15688 10.97241,-0.18369 11.83623,0.03823l-0.21475,0.62695c-2.56011,0.04834 -8.29102,-0.22837 -10.49575,0.06987c0.40562,3.11089 -0.09199,47.51147 -0.47402,48.13169l-0.07881,0.04307l-0.23979,-0.1229l0.28521,0.10767l-0.32417,-0.18721c-0.21167,-0.84111 -0.2083,-1.8854 -0.17871,-2.7605c-0.04863,0.71792 -0.11455,2.22729 -0.24536,2.86626c-0.09404,-1.40229 -0.04146,-3.63164 -0.04365,-5.08901l0.00952,-9.55664c0.01377,-10.66611 0.1374,-21.5833 0.00483,-32.22583c0.03955,-0.59209 -0.02197,-1.01221 -0.08042,-1.60518z" fill="#9c7742"></path><path d="M113.92412,70.79927c-0.34731,-0.15513 -0.623,-0.25811 -0.75234,-0.59956c1.07153,-0.12437 2.61885,-0.05273 3.73828,-0.0627c2.56963,-0.02256 5.15596,0.04658 7.72456,-0.03457l-0.21475,0.62695c-2.56011,0.04834 -8.29102,-0.22837 -10.49575,0.06987z" fill="#f7e4ad"></path><path d="M114.27539,111.23613c0.43682,0.75923 0.07998,5.17368 0.39375,6.45176c0.91611,0.38481 6.9356,-3.06724 9.01802,-3.26982c0.54009,-0.68101 0.07222,-3.55444 0.30791,-4.40991c0.22559,1.16353 0.21343,3.95742 0.11543,5.18745c-0.59238,0.88813 -3.16494,1.6938 -4.18799,2.15142c-0.81226,0.36343 -4.67373,1.86328 -5.16914,2.2585c-0.60469,0.48223 -0.28799,14.80503 -0.427,16.81289l-0.10649,-0.63823c0.05317,-2.59102 0.15557,-5.75845 0.03384,-8.31284c0.17388,-5.0458 0.05815,-11.16753 0.02168,-16.2312z" fill="#ad884c"></path><path d="M113.97114,121.87075c0.24375,1.73687 -0.14238,4.07109 0.28257,5.59658c0.12173,2.55439 0.01934,5.72183 -0.03384,8.31284c-0.21782,1.08281 0.30908,3.81504 -0.39741,4.28276l0.00469,-0.24258c0.39932,-2.18481 -0.46025,-5.95767 -0.29985,-8.40513c0.20522,-3.1311 0.14795,-6.42451 0.44385,-9.54448z" fill="#e9d093"></path><path d="M113.97114,121.87075c-0.18574,-3.95874 0.02197,-9.43726 0.09595,-13.45371c0.10503,0.42876 0.1626,2.21821 0.2083,2.81909c0.03647,5.06367 0.1522,11.1854 -0.02168,16.2312c-0.42495,-1.52549 -0.03882,-3.85972 -0.28257,-5.59658z" fill="#f7e4ad"></path><path d="M124.1105,115.19561l0.07925,0.64395c-0.15791,0.94673 -0.07134,2.98535 -0.06533,4.01689c0.00586,2.21001 -0.00542,4.42017 -0.03384,6.63003c1.44082,-1.60225 2.90142,-3.18662 4.38149,-4.75283l1.6207,-1.63169l0.10605,0.05771l-0.07866,0.29502c0.69023,0.91743 1.86665,1.93315 2.23447,2.98389c0.65039,1.85859 1.57969,4.19634 1.58833,6.1563c-0.1021,0.21592 -0.2042,0.43169 -0.30645,0.64746c-0.54961,0.78604 -1.53633,1.82871 -2.20269,2.57417c-1.06128,1.13013 -2.01152,2.12358 -2.97188,3.34878c-1.67563,1.70259 -3.3312,3.72129 -4.93286,5.52217c-0.3479,0.39126 -1.79106,2.0231 -1.98604,2.31753l0.20068,-0.04453c0.11763,1.06699 -3.28345,4.01074 -4.04312,4.92627c-1.30488,1.57178 -2.98784,3.04395 -3.98335,4.84277c0.08291,-2.75537 0.14136,-5.14453 0.07178,-7.90371c-0.03574,-1.4165 -0.1251,-4.47554 0.0334,-5.76284c0.70649,-0.46772 0.17959,-3.19995 0.39741,-4.28276l0.10649,0.63823c0.13901,-2.00786 -0.17769,-16.33066 0.427,-16.81289c0.49541,-0.39521 4.35688,-1.89507 5.16914,-2.2585c1.02305,-0.45762 3.59561,-1.26328 4.18799,-2.15142z" fill="url(#color-15)"></path><path d="M114.21987,135.78018l0.10649,0.63823c-0.10078,5.29409 -0.00557,10.56255 -0.04834,15.84771c2.29746,-2.75977 4.86519,-5.56348 7.26504,-8.26113l0.20068,-0.04453c0.11763,1.06699 -3.28345,4.01074 -4.04312,4.92627c-1.30488,1.57178 -2.98784,3.04395 -3.98335,4.84277c0.08291,-2.75537 0.14136,-5.14453 0.07178,-7.90371c-0.03574,-1.4165 -0.1251,-4.47554 0.0334,-5.76284c0.70649,-0.46772 0.17959,-3.19995 0.39741,-4.28276z" fill="#caa768"></path><path d="M213.6665,67.42632c-1.38281,2.24604 -5.09766,6.17139 -6.97412,8.26099l-8.0332,9.1207l-27.34424,30.90557l-9.30469,10.57515c-2.12109,2.42153 -4.52051,5.09048 -6.46289,7.62144c-0.32373,-0.19937 -0.60205,-0.36445 -0.9375,-0.54946l-0.17285,0.07441l-0.54932,-0.0564c0.00293,0.08862 0.00439,0.1771 0.00732,0.26572c1.3374,1.673 2.64111,3.44004 3.6123,5.35166l-0.0791,0.04102c-0.28711,-0.09668 -0.23877,-0.07983 -0.49805,-0.22573c0.04541,0.50449 0.06152,0.5959 0.01318,1.11665c-1.70801,-2.00273 -3.53467,-4.65996 -5.31152,-6.51387l0.29297,-0.15586c8.354,-9.2521 16.62012,-18.58403 24.79541,-27.99434c3.01318,-3.40327 6.90527,-8.19829 10.01514,-11.34302c-0.22119,0.59502 -0.28271,0.72129 -0.36035,1.33931l0.21533,-0.0564c0.32227,-0.50376 4.1499,-5.12197 4.56738,-5.49155l0.64893,-0.57554c0.52588,0.09785 0.81152,0.68174 0.81152,1.19136c0.71338,-0.60791 4.61865,-5.18145 5.34521,-6.04775c3.75879,-4.48535 7.49121,-8.61841 11.39795,-12.94438c1.229,-1.13481 2.16211,-2.5585 3.5874,-3.69302z" fill="url(#color-16)"></path><path d="M213.6665,67.42632c-1.38281,2.24604 -5.09766,6.17139 -6.97412,8.26099l-8.0332,9.1207l-27.34424,30.90557l-9.30469,10.57515c-2.12109,2.42153 -4.52051,5.09048 -6.46289,7.62144c-0.32373,-0.19937 -0.60205,-0.36445 -0.9375,-0.54946l24.36475,-27.60718c4.32715,-4.9002 9.21094,-10.77979 13.64355,-15.42539c0.71338,-0.60791 4.61865,-5.18145 5.34521,-6.04775c3.75879,-4.48535 7.49121,-8.61841 11.39795,-12.94438c1.229,-1.13481 2.16211,-2.5585 3.5874,-3.69302z" fill="#63431c"></path><path d="M151.63184,133.41416l0.29297,-0.15586l0.54199,0.15718l0.07324,0.18867c0.27979,0.69829 0.28125,0.76846 0.78223,1.28994l0.23877,0.07676c0.05273,-0.67251 -0.25049,-0.81489 -0.70459,-1.28101l0.01611,-0.14927c1.19824,0.45527 2.68506,4.42676 4.05762,5.2708c0.04541,0.50449 0.06152,0.5959 0.01318,1.11665c-1.70801,-2.00273 -3.53467,-4.65996 -5.31152,-6.51387z" fill="#caa768"></path><path d="M164.12549,100.63037c1.17041,-0.9022 4.00049,-4.48315 5.15479,-5.7772c1.05908,-1.18667 2.22217,-2.44058 3.271,-3.63882c2.78027,-3.20493 5.58984,-6.3835 8.43018,-9.53525c0.64893,-0.71309 2.77441,-3.11191 3.42188,-3.54287c2.57813,-1.7499 5.62061,-2.45933 8.47705,-3.51475c2.40088,-0.88696 4.25244,-1.58613 6.73682,-2.21528c2.18262,-0.55254 4.81055,-1.45869 6.9668,-2.17954c-0.84375,1.29229 -6.52588,3.02651 -8.13135,3.55078c-2.88721,0.79336 -11.37891,3.43052 -13.42383,5.15757c-1.93066,1.63125 -6.19922,6.5625 -8.04639,8.64624l-15.12451,17.06646l-35.64961,39.78809c-3.548,4.01294 -7.85376,8.58179 -11.24004,12.62329c-1.11885,0.20947 -1.37329,0.88623 -2.6562,1.08545c0.21533,-0.37646 0.28462,-0.87744 0.66592,-1.16748c0.18809,-0.14209 0.30967,-0.34863 0.43828,-0.54346c2.49375,-1.08838 5.79917,-6.61816 7.81963,-8.00977c1.52505,-1.53076 5.18145,-6.30117 6.15278,-7.07944c-0.03267,-0.34849 12.34512,-13.68574 13.69336,-15.21694l9.4248,-10.56138c0.77197,-0.87173 2.20605,-2.9064 2.96924,-3.55942c3.87158,-3.31289 7.04443,-8.00215 10.64941,-11.37627z" fill="#5d5b59"></path><path d="M127.38867,141.34438c-0.03267,-0.34849 12.34512,-13.68574 13.69336,-15.21694l9.4248,-10.56138c0.77197,-0.87173 2.20605,-2.9064 2.96924,-3.55942c3.87158,-3.31289 7.04443,-8.00215 10.64941,-11.37627c-0.04541,0.21577 -0.10254,0.4853 -0.17139,0.80815c-0.63281,0.71074 -1.37402,1.54292 -1.99512,2.24297c-1.92041,2.19624 -3.85107,4.38252 -5.79346,6.55898c-6.67529,7.6752 -13.43101,15.27993 -20.26611,22.81318c-0.81885,0.90835 -4.85684,5.63423 -5.51851,5.99443c-0.21812,0.15059 -3.15864,2.3458 -2.99224,2.29629z" fill="#231e1b"></path><path d="M127.38867,141.34438c-0.16641,0.04951 2.77412,-2.1457 2.99224,-2.29629c-0.60498,0.95918 -4.90181,5.76108 -5.92383,6.84053c-2.05181,2.16753 -4.93213,5.82085 -6.96167,7.76909c1.30708,-2.80078 2.12109,-2.92236 3.74048,-5.23389c1.52505,-1.53076 5.18145,-6.30117 6.15278,-7.07944z" fill="#231e1b"></path><path d="M209.34229,206.52686c-5.96045,-2.54297 -16.67578,-6.88037 -22.48389,-10.1792c-0.71924,-0.40869 -6.66797,-8.08887 -7.67578,-9.32959l-25.9541,-32.24561c-1.0957,-1.35498 -9.38481,-11.34712 -9.50684,-12.29692l0.3,-0.27627c0.90923,0.57671 0.53467,-0.32344 1.65718,0.95625c1.32114,1.50615 2.47544,3.31069 3.83774,4.74097c5.27197,6.7749 11.0127,13.28174 16.20557,20.13721c0.84375,1.11475 1.76514,2.31592 2.66895,3.375c3.36768,4.51904 6.98145,8.63379 10.41357,13.05176c1.80762,2.36133 3.62549,4.71387 5.45508,7.05762c2.50928,3.20947 2.46387,3.65771 6.16699,5.40527c0.57422,0.26514 1.36084,0.65918 1.93066,0.88623c0.61523,0.37939 4.86182,2.33203 5.68506,2.64697c1.66699,0.77783 10.05029,4.18799 10.82666,4.96582c0.5083,0.66797 0.84814,0.81738 1.64795,1.12354z" fill="url(#color-17)"></path><path d="M200.60303,70.44653c0.65918,-0.01831 1.56445,-0.13096 2.23975,-0.1938l0.00439,0.25635c-0.59766,0.45586 -3.53174,0.91143 -4.49414,1.21172c-4.94678,1.54336 -10.21143,2.8689 -14.69824,5.52334c-1.58496,1.08677 -6.30762,6.80112 -7.94385,8.57314c-8.64111,9.44956 -17.18555,18.98672 -25.6333,28.60986l-7.84336,8.80957c-0.71763,0.7938 -2.62661,3.02798 -3.31919,3.63135c-0.01685,-1.64443 1.29053,-1.78755 0.93926,-2.9335c3.16948,-3.39595 6.22046,-7.11738 9.27114,-10.62422c3.77344,-4.30474 7.57617,-8.58384 11.4082,-12.83672l9.52881,-10.72134c1.80908,-1.99907 4.26709,-4.46382 5.89453,-6.53936c1.5835,-1.31997 4.01953,-4.67402 5.49902,-6.00088c3.29443,-2.95386 11.66162,-5.23564 15.9917,-6.42568c1.04443,-0.17388 2.09766,-0.2874 3.15527,-0.33984z" fill="url(#color-18)"></path><path d="M133.05249,131.63188c0.48647,-0.24902 0.79146,-0.46963 1.23003,-0.79907l-0.12832,0.10503l0.13301,0.0854l0.01597,-0.15176l-0.39507,0.2606l0.30952,0.11045l-0.45688,1.31133c-1.33008,1.67593 -2.87505,3.37544 -4.31733,4.96787c-5.7019,6.29458 -11.13604,12.91919 -16.92085,19.12866l0.07764,-2.91504c0.09375,-5.85352 -0.03779,-11.73574 0.06885,-17.58809c0.20757,1.02876 0.0665,3.0123 0.68467,3.64028l0.47344,0.03281l-0.00469,0.24258c-0.1585,1.2873 -0.06914,4.34634 -0.0334,5.76284c0.06958,2.75918 0.01113,5.14834 -0.07178,7.90371c0.99551,-1.79883 2.67847,-3.271 3.98335,-4.84277c0.75967,-0.91553 4.16074,-3.85928 4.04312,-4.92627l-0.20068,0.04453c0.19497,-0.29443 1.63813,-1.92627 1.98604,-2.31753c1.60166,-1.80088 3.25723,-3.81958 4.93286,-5.52217c0.96035,-1.2252 1.9106,-2.21865 2.97188,-3.34878l0.61348,-0.02681c0.16538,-0.30249 0.74004,-0.92563 1.00518,-1.15781z" fill="url(#color-19)"></path><path d="M131.43384,132.8165l0.61348,-0.02681c-0.17549,0.52705 -2.98169,3.23467 -3.58535,3.37559c0.96035,-1.2252 1.9106,-2.21865 2.97188,-3.34878z" fill="#e9d093"></path><path d="M208.74463,69.62007l0.14209,-0.03179l-0.04834,-0.39492c0.78662,-0.30146 1.12793,-0.05479 1.94238,0.24814c-0.69434,0.71807 -1.02832,0.9627 -1.41943,1.89448c-3.90674,4.32598 -7.63916,8.45903 -11.39795,12.94438c-0.72656,0.86631 -4.63184,5.43984 -5.34521,6.04775c0,-0.50962 -0.28564,-1.09351 -0.81152,-1.19136l-0.00293,-0.11777c3.22852,-3.48633 6.74561,-8.19814 9.9624,-11.44673c1.23486,-1.59668 3.07617,-3.55942 4.43262,-5.06777c0.22412,-0.35435 2.10791,-2.38726 2.5459,-2.88442z" fill="#ad884c"></path><path d="M206.19873,72.50449c-0.06006,0.68467 -1.49121,2.16812 -2.10352,3.02988l0.05859,-0.00557c-0.48633,0.61802 -1.65674,1.85332 -2.3877,2.04346c1.23486,-1.59668 3.07617,-3.55942 4.43262,-5.06777z" fill="#9c7742"></path><path d="M162.20361,167.43457c1.84277,1.88965 3.76904,4.81934 5.54736,7.02539l12.31494,15.04248c2.34668,2.8916 4.21436,5.79785 7.13965,8.1416c0.02051,0.01904 0.04102,0.03955 0.06152,0.06006c-0.44824,-0.12744 -1.59814,-0.15234 -2.12695,-0.17578c-0.74561,-0.51416 -6.30469,-7.40918 -6.97998,-8.31592c0.02637,-0.61963 -0.20508,-1.06201 -0.62402,-1.55859c-3.33838,-3.97705 -6.64893,-7.99512 -9.87451,-12.07031c-1.18213,-1.49268 -2.79639,-3.27832 -3.81445,-4.83252c0.44092,-0.37354 0.23438,-0.42334 -0.12012,-0.83643c-0.70898,-0.82764 -1.14258,-1.46484 -1.52344,-2.47998z" fill="url(#color-20)"></path><path d="M208.3125,69.63223l0.2666,-0.11895l0.16553,0.10679c-0.43799,0.49717 -2.32178,2.53008 -2.5459,2.88442c-1.35645,1.50835 -3.19775,3.47109 -4.43262,5.06777c-3.2168,3.24858 -6.73389,7.9604 -9.9624,11.44673l0.00293,0.11777l-0.64893,0.57554c-0.41748,0.36958 -4.24512,4.98779 -4.56738,5.49155l-0.21533,0.0564c0.07764,-0.61802 0.13916,-0.74429 0.36035,-1.33931c0.4585,-0.7311 4.92334,-5.6291 5.90771,-6.71206c5.14453,-5.65342 10.34912,-12.17798 15.66943,-17.57666z" fill="#f7e4ad"></path><path d="M94.46748,135.1793c0.13989,1.90107 -0.11411,4.69263 0.04688,6.25869c1.2873,-0.03735 1.39438,-0.20288 2.17559,0.85898c-0.11323,3.30879 -0.51548,8.82656 -0.28916,11.83975l0.00864,28.74316c0.11631,0.7251 0.17578,1.17334 0.21094,1.90576c0.20435,-0.23877 0.13931,-0.21973 0.21636,-0.58447c0.07646,3.10107 0.01099,6.34277 -0.00908,9.45557c0.26499,3.16406 0.11851,10.21436 0.05288,13.48682c0.53833,0.02051 1.37988,0.02637 1.88862,0.104c3.04629,0.01465 6.22441,0.07471 9.26001,-0.00146c1.30283,-0.18164 3.16157,-0.12891 4.51655,-0.12305l-0.0356,-7.45605c-0.00205,-0.95361 -0.03867,-3.2124 0.10576,-4.08252c0.04834,-5.01855 0.0605,-10.03564 0.03633,-15.05273l0.01948,-2.98828c0.28828,-0.36328 0.61201,-0.70166 0.92637,-1.04443c2.1832,-2.07422 6.29458,-7.05762 8.45947,-9.51709c0.8688,-1.06494 1.76499,-2.10791 2.6877,-3.12744l0.21548,-0.36182c0.53701,-0.44385 1.06714,-1.09277 1.51978,-1.62891c2.2333,-2.64697 4.67769,-5.19287 6.81094,-7.91602c7.35498,9.70313 15.61143,19.18359 22.96494,28.84863l-0.14355,0.18457c-0.71777,-0.06885 -2.55029,-2.98535 -3.37793,-3.54053c-0.03662,0.7251 0.90967,1.00635 0.54199,1.86182c-0.43213,0.15088 -0.40723,0.12451 -0.85254,-0.00732l-0.14355,0.01611l-0.4834,-0.16699c-0.20947,0.32666 -0.1333,0.14502 -0.09375,0.62109l-9.34292,-11.70703c-1.91587,-2.28223 -4.66802,-5.68799 -6.39141,-8.07422c-0.61582,-0.76318 -1.1105,-1.37695 -1.65923,-2.19287l-1.07388,-1.35352c-1.66597,1.96289 -3.346,3.99023 -5.09326,5.87402c-0.01201,5.1709 -0.18809,9.89648 -0.27861,14.99854l0.00879,2.12695c0.30513,3.56689 0.23071,7.51025 0.2376,11.12109l0.04453,17.48877c-11.37627,-0.08789 -22.75283,-0.11426 -34.12939,-0.07764c0.05698,-4.73291 -0.14414,-10.50439 0.05098,-15.08203c-0.02534,-2.2998 -0.02871,-4.59961 -0.01011,-6.89941c-0.173,-2.85498 -0.00996,-7.15723 -0.0457,-10.1543c-0.05684,-4.75049 -0.23936,-11.2998 0.14854,-15.98877c-0.17915,-6.21826 0.14546,-12.72217 0.10049,-18.96841c-0.01714,-2.38286 -0.02256,-5.38066 0.19746,-7.69702z" fill="url(#color-21)"></path><path d="M124.74521,163.85449c-0.18911,1.41943 -0.14341,3.12744 -0.20566,4.58496c0.14326,1.9834 0.07471,4.06055 0.11001,6.0542c0.18838,10.66846 -0.30015,21.31348 -0.29033,31.97314c-3.12026,0.13184 -7.5939,-0.12744 -10.41504,0.14063c-0.44531,0.11426 -0.87393,0.18896 -1.3248,0.27246c0.01216,-3.66797 0.09639,-7.65381 -0.00352,-11.29541c0.04834,-5.01855 0.0605,-10.03564 0.03633,-15.05273l0.01948,-2.98828c0.28828,-0.36328 0.61201,-0.70166 0.92637,-1.04443c2.1832,-2.07422 6.29458,-7.05762 8.45947,-9.51709c0.8688,-1.06494 1.76499,-2.10791 2.6877,-3.12744z" fill="url(#color-22)"></path><path d="M124.53955,168.43945c0.14326,1.9834 0.07471,4.06055 0.11001,6.0542c0.18838,10.66846 -0.30015,21.31348 -0.29033,31.97314c-3.12026,0.13184 -7.5939,-0.12744 -10.41504,0.14063l0.11206,-0.98145l0.30044,0.64307c0.46567,0.12891 5.45142,0.05859 6.29546,0.05566c-1.15298,-1.18066 -3.04966,-1.64941 -3.77256,-2.93848c-2.04976,-3.65479 -1.46792,-5.26172 1.31133,-8.18262c1.45415,-1.52783 3.01157,-4.229 4.43408,-5.63525c2.7353,-2.7041 1.11226,-1.32275 1.63257,-4.24805l0.15396,0.14355c0.10166,-0.7749 0.05962,-2.66016 0.09873,-3.53027c0.19893,-4.42969 -0.17783,-9.0791 0.0293,-13.49414z" fill="#ad884c"></path><path d="M112.67168,177.54346c0.28828,-0.36328 0.61201,-0.70166 0.92637,-1.04443c0.04614,0.8335 0.05728,0.99463 0.3189,1.78125c0.01875,2.37012 0.15542,5.99121 0.02593,8.25439c0.02095,1.72559 0.09609,3.77344 0.04673,5.47559c-0.18018,1.27295 -0.06401,2.87256 -0.0769,4.17041c-0.02974,3.01172 0.29722,6.47754 0.14355,9.44531l-0.11206,0.98145c-0.44531,0.11426 -0.87393,0.18896 -1.3248,0.27246c0.01216,-3.66797 0.09639,-7.65381 -0.00352,-11.29541c0.04834,-5.01855 0.0605,-10.03564 0.03633,-15.05273z" fill="url(#color-23)"></path><path d="M112.67168,177.54346c0.28828,-0.36328 0.61201,-0.70166 0.92637,-1.04443c0.04614,0.8335 0.05728,0.99463 0.3189,1.78125c0.01875,2.37012 0.15542,5.99121 0.02593,8.25439c-0.1875,-1.31104 -0.28022,-5.94434 -0.29985,-7.34033c-0.45205,-0.12451 -0.24712,-0.15088 -0.63896,0.04541c-0.3085,0.72803 0.00645,0.96973 -0.13169,1.77246l-0.22017,-0.48047z" fill="#ad884c"></path><path d="M122.05752,166.98193c1.26826,-0.25928 1.34575,-0.48047 2.04272,-0.66943c-0.02871,0.36035 -0.20684,0.25635 -0.29604,0.79248c-0.96724,1.85889 -5.91797,6.83789 -7.53384,8.75537c-0.45,0.5332 -1.81523,1.88672 -2.0376,2.43457l-0.31582,-0.01465c-0.26162,-0.78662 -0.27275,-0.94775 -0.3189,-1.78125c2.1832,-2.07422 6.29458,-7.05762 8.45947,-9.51709z" fill="#e9d093"></path><path d="M124.74521,163.85449c-0.18911,1.41943 -0.14341,3.12744 -0.20566,4.58496c-0.20713,4.41504 0.16963,9.06445 -0.0293,13.49414c-0.03911,0.87012 0.00293,2.75537 -0.09873,3.53027l-0.15396,-0.14355c0.12305,-1.63184 -0.19102,-18.33545 -0.15747,-18.28271l-0.2959,0.06738c0.08921,-0.53613 0.26733,-0.43213 0.29604,-0.79248c-0.69697,0.18896 -0.77446,0.41016 -2.04272,0.66943c0.8688,-1.06494 1.76499,-2.10791 2.6877,-3.12744z" fill="#caa768"></path><path d="M113.91694,178.28027l0.31582,0.01465c0.05801,1.57178 0.19556,12.9668 -0.24316,13.71533c0.04937,-1.70215 -0.02578,-3.75 -0.04673,-5.47559c0.12949,-2.26318 -0.00718,-5.88428 -0.02593,-8.25439z" fill="#caa768"></path><path d="M127.32451,209.30566l-0.0375,-15.74268c0.00688,-4.52783 -0.15161,-7.61133 0.58608,-12.12598c0.30513,3.56689 0.23071,7.51025 0.2376,11.12109l0.04453,17.48877c-11.37627,-0.08789 -22.75283,-0.11426 -34.12939,-0.07764c0.05698,-4.73291 -0.14414,-10.50439 0.05098,-15.08203c0.25298,0.93896 0.13608,2.27197 0.17783,3.23145c0.12114,2.79053 -0.42554,8.20605 0.43066,10.64063l0.12319,0.0249l0.14648,-1.11035c0.1103,0.43066 0.08306,0.87598 0.0917,1.33301c3.79058,0.01758 7.59668,-0.22852 11.3644,-0.12891c6.97046,0.18457 13.94458,0.25928 20.91343,0.42773z" fill="#63431c"></path><path d="M124.74521,163.85449l0.21548,-0.36182c0.36489,1.25098 0.27524,17.63818 0.17959,19.66846c-0.2165,4.23633 0.14502,9.68994 0.20303,14.04639c0.04248,3.19189 -0.04629,6.97852 0.09448,10.07666c-2.94902,-0.01611 -6.40283,-0.11865 -9.31304,0.01318c-1.91836,-0.02783 -3.83701,-0.03076 -5.75552,-0.00732l-2.34009,-0.04395c1.30283,-0.18164 3.16157,-0.12891 4.51655,-0.12305l-0.0356,-7.45605c-0.00205,-0.95361 -0.03867,-3.2124 0.10576,-4.08252c0.0999,3.6416 0.01567,7.62744 0.00352,11.29541c0.45088,-0.0835 0.87949,-0.1582 1.3248,-0.27246c2.82114,-0.26807 7.29478,-0.00879 10.41504,-0.14062c-0.00981,-10.65967 0.47871,-21.30469 0.29033,-31.97314c-0.0353,-1.99365 0.03325,-4.0708 -0.11001,-6.0542c0.06226,-1.45752 0.01655,-3.16553 0.20566,-4.58496z" fill="url(#color-24)"></path><path d="M124.96069,163.49268c0.53701,-0.44385 1.06714,-1.09277 1.51978,-1.62891c2.2333,-2.64697 4.67769,-5.19287 6.81094,-7.91602c7.35498,9.70313 15.61143,19.18359 22.96494,28.84863l-0.14355,0.18457c-0.71777,-0.06885 -2.55029,-2.98535 -3.37793,-3.54053c-1.95264,-2.72607 -4.36816,-5.62793 -6.48384,-8.27783c-2.99883,-3.73535 -5.96543,-7.49707 -8.89966,-11.28223c-1.25142,-1.59521 -2.88223,-3.55371 -4.04121,-5.17676c-2.49609,3.02051 -5.43867,5.91943 -7.80176,8.77588c-0.12056,7.07373 0.13564,14.34082 -0.13521,21.42041c-0.0041,0.04395 -0.0082,0.08789 -0.01216,0.13037c-0.03311,-0.57568 -0.03354,-1.34619 -0.22075,-1.86914c0.09565,-2.03027 0.1853,-18.41748 -0.17959,-19.66846z" fill="#e9d093"></path><path d="M127.08984,164.07129c1.83633,-1.93652 4.33579,-4.77979 6.01685,-6.84375c0.4166,0.1333 0.3835,0.26514 0.70034,0.71924c-0.24229,0.83936 0.49219,0.82764 0.50303,1.84424l-1.07388,-1.35352c-1.66597,1.96289 -3.346,3.99023 -5.09326,5.87402c-0.01201,5.1709 -0.18809,9.89648 -0.27861,14.99854c-0.14297,-0.76172 -0.04687,-1.64502 -0.14575,-2.42725c-0.40576,-3.21094 -0.37632,-6.39404 -0.38789,-9.62109c-0.00381,-1.0459 -0.00161,-2.1709 -0.24082,-3.19043z" fill="#63431c"></path><path d="M142.52886,168.87451c2.24927,2.77441 4.46821,5.5752 6.65522,8.39941c0.854,1.09717 2.40088,2.9458 3.09668,4.03711l-0.4834,-0.16699c-0.20947,0.32666 -0.1333,0.14502 -0.09375,0.62109l-9.34292,-11.70703l0.15425,-0.12891c0.16934,-0.36621 0.07456,-0.646 0.01392,-1.05469z" fill="#63431c"></path><path d="M135.96929,161.98389l0.18179,-0.12012c0.38042,0.37939 0.16143,0.27979 0.66021,0.34717c0.08877,-0.06885 0.18984,-0.12598 0.26016,-0.21387c1.84863,2.26904 3.66782,4.56152 5.45742,6.87744c0.06064,0.40869 0.15542,0.68848 -0.01392,1.05469l-0.15425,0.12891c-1.91587,-2.28223 -4.66802,-5.68799 -6.39141,-8.07422z" fill="#63431c"></path><path d="M94.16953,161.84473c0.16099,2.76855 0.17534,5.62207 0.36826,8.42139c0.19731,2.86084 -0.21943,6.14795 -0.26426,9.03076c-0.06196,3.04541 0.08438,5.52979 -0.20684,8.69092c-0.173,-2.85498 -0.00996,-7.15723 -0.0457,-10.1543c-0.05684,-4.75049 -0.23936,-11.2998 0.14854,-15.98877z" fill="#63431c"></path><path d="M110.36924,207.29004c1.91851,-0.02344 3.83716,-0.02051 5.75552,0.00732l0.19014,0.01465c2.90845,0.20654 6.18604,-0.06445 9.05332,0.18311l0.01685,0.07324c-1.98809,0.34863 -4.37256,0.1582 -6.45615,0.15527c-3.74575,0.01318 -7.49165,-0.00439 -11.23726,-0.0498c0.78662,-0.3999 1.52065,0.03223 2.67759,-0.38379z" fill="#caa768"></path><path d="M98.76914,207.24756c3.04629,0.01465 6.22441,0.07471 9.26001,-0.00146l2.34009,0.04395c-1.15693,0.41602 -1.89097,-0.01611 -2.67759,0.38379c-1.03579,0.08936 -3.08569,0.04102 -4.17964,0.03955c-2.15889,-0.00293 -4.68091,0.07764 -6.80859,-0.09961l-0.06548,-0.08936c0.77754,-0.3208 1.29023,-0.26367 2.1312,-0.27686z" fill="#ad884c"></path><path d="M96.40942,182.87988c0.11631,0.7251 0.17578,1.17334 0.21094,1.90576c0.20435,-0.23877 0.13931,-0.21973 0.21636,-0.58447c0.07646,3.10107 0.01099,6.34277 -0.00908,9.45557l-0.09668,0.03223l-0.14297,-0.07764c-0.02886,-3.64307 -0.28037,-6.94336 -0.17856,-10.73145z" fill="#caa768"></path><path d="M134.31006,159.79102c-0.01084,-1.0166 -0.74531,-1.00488 -0.50303,-1.84424c1.17319,1.35791 2.21147,2.58545 3.2644,4.05029c-0.07031,0.08789 -0.17139,0.14502 -0.26016,0.21387c-0.49878,-0.06738 -0.27979,0.03223 -0.66021,-0.34717l-0.18179,0.12012c-0.61582,-0.76318 -1.1105,-1.37695 -1.65923,-2.19287z" fill="#4d3312"></path><path d="M93.95698,67.10259c0.3271,-0.17168 0.51167,-0.1749 0.88022,-0.17373c9.96577,0.03237 19.93198,0.00396 29.89775,0.01436c1.10332,0.00103 2.18657,-0.0126 3.2877,0.07705c-0.54082,0.39067 -0.72832,0.52163 -0.82119,1.19429c-0.19702,1.42544 -0.08071,3.06841 -0.03794,4.52432l-0.03809,3.72568l-0.21475,-0.029c-0.13081,1.13335 0.10532,1.57998 -0.71543,2.29043l-0.30366,0.00293c-0.40796,-0.50112 -0.33062,-1.29639 -0.27773,-1.91484l0.04834,0.29604l-0.02139,-0.10063c-0.03442,0.67295 -0.02417,1.40581 -0.23071,2.03438c-0.11836,-2.8957 -0.01655,-6.65347 -0.01318,-9.60337c-5.66309,0.08716 -12.41001,-0.22236 -17.92441,0.13242c-3.5373,-0.00762 -7.07461,-0.0394 -10.61147,-0.09551l-0.03882,31.4647c-0.00264,4.55083 -0.21211,11.05239 0.00396,15.41733c-0.29077,4.94443 0.15015,10.85244 0.01011,15.86689c-0.04497,1.60942 0.11587,3.84346 -0.01099,5.38359c-0.25811,0.94175 -0.25269,3.66357 -0.13535,4.68706c-0.7812,-1.06187 -0.88828,-0.89634 -2.17559,-0.85898c-0.16099,-1.56606 0.09302,-4.35762 -0.04687,-6.25869l0.03105,-23.36338c-0.36812,-3.31084 -0.65332,-11.08901 -0.00542,-14.29556c-0.16948,-6.55649 -0.27437,-13.1146 -0.31479,-19.67314c-0.14751,-1.1918 -0.13799,-3.53145 -0.16172,-4.78198c-0.03501,-1.84248 -0.15439,-4.15034 -0.05962,-5.96265z" fill="url(#color-25)"></path><path d="M94.49312,97.52036c0.37471,2.04624 0.40767,12.14282 0.00542,14.29556c-0.36812,-3.31084 -0.65332,-11.08901 -0.00542,-14.29556z" fill="#63431c"></path><path d="M93.95698,67.10259c1.59302,1.67329 0.30029,6.27495 0.29399,8.49448c-0.00176,0.623 -0.00381,1.65732 -0.07266,2.25015c-0.14751,-1.1918 -0.13799,-3.53145 -0.16172,-4.78198c-0.03501,-1.84248 -0.15439,-4.15034 -0.05962,-5.96265z" fill="#9c7742"></path><path d="M112.32568,70.16235l0.23306,0.23833c0.05845,0.59297 0.11997,1.01309 0.08042,1.60518c-0.08687,-0.46538 -0.06182,-0.7897 -0.32256,-1.09673c-0.22559,0.52192 -0.19526,1.54966 -0.20112,2.12798c-0.09331,9.29473 0.36943,18.69097 0.05127,27.96313c-0.08525,2.61694 -0.12861,5.23506 -0.13022,7.85332c-0.07295,11.51396 -0.07251,23.02837 0.00132,34.54248l0.02798,10.1064c0.00396,1.03418 -0.04189,4.06055 0.1106,4.94971c-0.57847,1.03125 -1.08267,2.08447 -1.58965,3.15234c-0.31128,-4.53223 0.01567,-8.15918 0.15146,-12.63281c0.0791,-2.60742 -0.60879,-5.90581 -0.25386,-8.67495c0.42568,-0.74927 0.29692,-33.64731 0.25254,-37.85728l-0.02783,-13.77642c0.1686,-1.39878 0.03882,-3.4853 0.07148,-4.93652c0.08862,-3.9394 -0.2272,-8.3291 -0.01597,-12.2354c0.50859,-0.45176 0.59678,-0.57041 1.01133,-1.12134c0.35493,0.01758 0.1771,0.03252 0.54976,-0.20742z" fill="url(#color-26)"></path><path d="M178.16016,189.2124c-3.16553,-4.12939 -6.84375,-8.52832 -10.13232,-12.59766l-16.3623,-20.34521l-6.48164,-8.03174c-0.89385,-1.10889 -3.38657,-4.21025 -4.10435,-5.37305l0.09888,-0.11895l0.54668,0.23115l0.1793,-0.20859c1.28481,0.4084 8.6332,10.04121 9.91787,11.77998c3.15527,4.27588 7.2085,8.69238 10.38135,12.88623c0.38086,1.01514 0.81445,1.65234 1.52344,2.47998c0.35449,0.41309 0.56104,0.46289 0.12012,0.83643c1.01807,1.5542 2.63232,3.33984 3.81445,4.83252c3.22559,4.0752 6.53613,8.09326 9.87451,12.07031c0.41895,0.49658 0.65039,0.93896 0.62402,1.55859z" fill="#514e49"></path><path d="M141.90439,142.76836c1.28481,0.4084 8.6332,10.04121 9.91787,11.77998c3.15527,4.27588 7.2085,8.69238 10.38135,12.88623c0.38086,1.01514 0.81445,1.65234 1.52344,2.47998c0.35449,0.41309 0.56104,0.46289 0.12012,0.83643c-1.14697,-1.14697 -3.87451,-4.7666 -4.99365,-6.18457l-9.38965,-11.88574c-1.69629,-2.15771 -3.35098,-4.29492 -5.0187,-6.47021c-0.99756,-1.30093 -1.70127,-1.59375 -2.72007,-3.2335z" fill="#231e1b"></path><path d="M96.86104,69.47739c3.53687,0.0561 7.07417,0.08789 10.61147,0.09551c0.69185,0.14121 4.72061,0.4834 4.85317,0.58945c-0.37266,0.23994 -0.19482,0.225 -0.54976,0.20742c-0.41455,0.55093 -0.50273,0.66958 -1.01133,1.12134c-4.07153,-0.03179 -8.14321,-0.04131 -12.21489,-0.02842c0.13872,1.42954 0.05713,3.7812 0.04849,5.26304l-0.02124,8.7583c0.00396,8.19785 0.20024,17.7624 -0.06724,25.87368c-0.22119,-3.42202 -0.08628,-7.94033 -0.07104,-11.45698c0.02241,-5.14263 -0.10342,-10.40024 -0.02783,-15.51489c0.04438,-3.0709 0.03486,-6.14224 -0.02871,-9.2127c-0.01641,-1.05645 0.04277,-2.10293 0.01772,-3.15894c-0.0186,-0.77871 -0.61611,-1.04106 -1.1937,-1.4666l-0.20815,0.06211c0.02622,0.31787 0.05215,0.59956 0.12144,0.91128c0.28198,1.26973 -0.14692,44.39355 -0.29326,44.83843c-0.21606,-4.36494 -0.00659,-10.8665 -0.00396,-15.41733z" fill="#231e1b"></path><path d="M111.77593,70.36978c-0.41455,0.55093 -0.50273,0.66958 -1.01133,1.12134c-4.07153,-0.03179 -8.14321,-0.04131 -12.21489,-0.02842c-0.24316,-0.29927 -0.20581,-0.17285 -0.28447,-0.51343c2.17896,0.04834 4.46675,0.05273 6.64292,-0.00586c2.04185,-0.05508 5.11831,0.43711 6.86777,-0.57363z" fill="#9c9c98"></path><path d="M185.14014,197.52832c0.52881,0.02344 1.67871,0.04834 2.12695,0.17578c2.28223,1.47949 20.15771,9.33252 22.15576,9.48193l0.15527,-0.08203l-0.0293,0.00586l-0.24902,-0.30908l0.04248,-0.27393l1.1748,0.01904l0.14502,0.07471c-0.14502,-0.39551 -0.13184,-0.36914 -0.04541,-0.78516c0.36475,0.43652 0.91553,0.98145 1.06787,1.47949c-3.98291,-0.12158 -8.29834,-0.02783 -12.31348,-0.0249c-2.90918,-0.14209 -6.24609,0.16699 -9.18457,-0.04102c0.34863,-0.09668 3.63574,-0.0835 4.16895,-0.09082c4.04883,-0.06006 8.17676,0.07031 12.21826,-0.07324c-3.90674,-1.0752 -18.96533,-7.06934 -21.43359,-9.55664z" fill="#514e49"></path><path d="M110.39941,101.52759c-0.08525,-1.99761 -0.25122,-11.60391 0.30967,-12.86455l0.02783,13.77642c0.04438,4.20996 0.17314,37.10801 -0.25254,37.85728c0.09932,-1.41929 0.03706,-3.66021 0.03545,-5.12417l-0.08013,-10.38047z" fill="#514e49"></path><path d="M96.82588,153.01318c0.08643,10.396 0.09009,20.79199 0.01084,31.18799c-0.07705,0.36475 -0.01201,0.3457 -0.21636,0.58447c-0.03516,-0.73242 -0.09463,-1.18066 -0.21094,-1.90576l-0.00864,-28.74316c0.13784,-0.26514 0.31611,-0.82031 0.4251,-1.12354z" fill="#e9d093"></path><path d="M96.68994,142.29697c-0.11733,-1.02349 -0.12275,-3.74531 0.13535,-4.68706c0.11206,3.12583 0.07485,6.42729 0.0731,9.56147c-0.00103,1.66992 0.06123,4.22754 -0.07251,5.8418c-0.10898,0.30322 -0.28726,0.8584 -0.4251,1.12354c-0.22632,-3.01318 0.17593,-8.53096 0.28916,-11.83975z" fill="#caa768"></path><path d="M112.31206,158.14453c1.28291,-0.19922 1.53735,-0.87598 2.6562,-1.08545c-0.55107,0.62988 -3.825,4.49414 -4.33096,4.66699l-0.05054,-0.12158c0.50698,-1.06787 1.01118,-2.12109 1.58965,-3.15234z" fill="#514e49"></path><path d="M136.40508,226.91162c2.86948,-0.06152 5.25381,2.19727 5.34756,5.06689c0.0936,2.86816 -2.13838,5.27783 -5.00566,5.40381c-1.88379,0.0835 -3.66665,-0.85254 -4.66831,-2.45068c-1.00166,-1.59814 -1.06743,-3.61084 -0.17212,-5.27051c0.89531,-1.65967 2.61343,-2.70996 4.49854,-2.74951z" fill="#e9d093"></path><path d="M136.08237,228.46582c2.00771,-0.23437 3.83101,1.18799 4.09131,3.19336c0.2603,2.00391 -1.13921,3.84521 -3.14033,4.13232c-1.31748,0.1875 -2.63452,-0.34717 -3.44736,-1.40039c-0.81284,-1.05469 -0.99595,-2.46387 -0.47915,-3.69141c0.5168,-1.22607 1.65352,-2.08008 2.97554,-2.23389z" fill="#0e0e0d"></path><path d="M144.41396,227.16504c2.24766,-0.02637 5.77354,-0.43359 7.58115,0.98877c2.51367,1.979 2.41699,5.15918 0.56543,7.54395c-2.29541,1.95117 -5.17822,1.49121 -8.12432,1.45605c-0.0293,-3.32959 -0.03662,-6.65918 -0.02227,-9.98877z" fill="#e9d093"></path><path d="M146.04756,228.53174c1.41973,-0.03369 3.6082,-0.24463 4.75811,0.58594c1.94971,1.40918 1.80029,3.86426 0.52295,5.64111c-1.77686,1.2583 -3.15381,0.98438 -5.29204,0.95215z" fill="#0e0e0d"></path><path d="M80.00171,227.09619c3.07134,-0.05713 8.62646,-0.73828 8.07305,4.125c-0.1377,1.2085 -1.07534,1.94531 -1.98413,2.61621c0.47183,0.69287 1.78623,2.4873 2.01782,3.21094c-0.24507,0.14795 -0.93223,0.12305 -1.27866,0.1377c-0.57466,-0.08643 -2.00054,-2.47412 -2.41758,-3.07471l-2.78071,-0.02637c-0.02124,0.84814 0.04717,1.62598 -0.03779,2.48877c-0.07822,0.79248 -1.07344,0.70898 -1.50571,0.39404c-0.25137,-1.98633 -0.09609,-7.60693 -0.08628,-9.87158z" fill="#ad884c"></path><path d="M81.59048,228.45557c2.32661,-0.01025 6.61699,-0.03809 4.27295,3.65771c-1.26416,0.78369 -2.75244,0.59473 -4.23076,0.56543c-0.03604,-1.38135 -0.02871,-2.83594 -0.04219,-4.22314z" fill="#0e0e0d"></path><path d="M206.53418,227.08301c0.59912,0.00586 0.91699,-0.09229 1.3623,0.18896c0.14063,0.45557 -0.19482,1.08984 -0.37939,1.57324c-0.81299,2.74512 -1.80469,5.6001 -2.70557,8.3291l-1.63623,-0.02197c-0.87744,-2.57373 -1.71826,-5.15918 -2.52686,-7.75635c-0.87451,2.33643 -1.74902,5.354 -2.52393,7.77246c-0.68994,0.02051 -0.95947,0.06738 -1.61133,-0.10986c-0.43506,-0.78662 -3.03662,-8.69971 -3.42773,-9.94629l1.72705,0.03369c0.7207,2.44922 1.67139,5.14746 2.47119,7.604c0.91699,-2.354 1.78564,-5.20459 2.5415,-7.62012c0.53467,-0.01758 1.11182,-0.00146 1.65088,0.00293c0.64453,2.43896 1.68164,5.3833 2.46533,7.81494c0.89795,-2.51074 1.75781,-5.30859 2.59277,-7.86475z" fill="#caa768"></path><path d="M212.88574,227.13281l1.82373,0.02197c1.37842,3.35303 2.98828,6.6709 4.43115,10.00049h-1.77246l-0.95654,-2.39941h-1.84863l-3.31201,-0.00146c-0.26367,0.63428 -0.76758,2.17383 -1.40625,2.40381c-0.46436,-0.00732 -0.91553,0.08496 -1.18945,-0.14502c1.08252,-3.00879 2.9502,-6.78076 4.23047,-9.88037z" fill="#caa768"></path><path d="M213.73389,228.88477c0.49512,0.46436 1.71826,3.57129 2.10352,4.47803l-1.64062,0.05273l-2.3877,0.01172z" fill="#0e0e0d"></path><path d="M177.68994,227.07275c0.49658,0.00146 1.18066,-0.06445 1.53809,0.24756c0.11865,1.03125 0.16113,8.896 -0.06299,9.66357c-0.52295,0.31055 -0.81006,0.29297 -1.3125,-0.04687c-0.32959,-0.50244 -0.17139,-3.38379 -0.1626,-4.19385l-5.31152,0.00439l0.00732,4.41797c-0.60352,0.01318 -1.08691,0.08789 -1.62744,-0.15381c-0.17725,-0.85107 -0.20801,-9.45557 0.1582,-9.83643c0.57422,-0.03955 0.60352,-0.08496 1.12793,0.18164c0.62549,0.76611 0.31201,2.72607 0.30615,3.94629l5.3335,-0.01172z" fill="#e9d093"></path><path d="M106.92114,227.12402l1.60254,-0.00439c0.01948,1.27588 0.18882,9.44385 -0.16758,10.03271c-0.4582,0.02051 -0.82822,0.10693 -1.18213,-0.14502c-0.54609,-0.92578 -0.24829,-3.02197 -0.23247,-4.28467l-5.3436,0.02197c-0.04292,1.04004 0.20903,3.67383 -0.21929,4.39893c-0.56704,0.05566 -0.56484,0.0542 -1.12778,-0.04395c-0.44736,-0.50244 -0.25181,-8.66748 -0.22676,-10.00488c0.51929,-0.00732 0.80757,-0.06445 1.2583,0.1875c0.59092,0.90088 0.31025,2.70703 0.32944,4.01367l5.31182,-0.00879z" fill="#caa768"></path><path d="M71.81572,227.12695c1.35601,-0.01465 4.4395,-0.53027 5.25806,0.54346c0.02681,0.56543 0.12393,0.34717 -0.15176,0.73096c-1.38105,0.19482 -3.86821,0.08057 -5.38652,0.07471l0.03428,2.81543c1.27324,0.02783 4.02422,-0.41602 4.76177,0.52734c0.11118,0.59033 0.16143,0.33252 -0.05156,0.81299c-1.20747,0.15967 -3.36753,0.06006 -4.70054,0.08496l-0.03501,1.84131l0.02622,1.18652c1.30269,-0.00146 4.82036,-0.32227 5.63716,0.34424c-0.00234,0.58594 0.09243,0.56982 -0.17109,0.97998c-1.33916,0.24023 -5.55088,0.10254 -7.05835,0.08789c-0.0624,-3.33691 -0.07544,-6.67529 -0.03896,-10.01221z" fill="#ad884c"></path><path d="M121.45254,227.05371c0.62212,-0.01758 0.77476,-0.02637 1.37974,0.07617c0.40869,0.5083 0.22031,4.38867 0.21123,5.28809c1.71724,-1.65967 3.41309,-3.60937 5.15186,-5.35107l1.89946,0.02783c-1.44229,1.3916 -2.79785,3.0498 -4.23896,4.52344c0.79468,0.88184 1.73584,2.14014 2.49023,3.09082c0.64438,0.81885 1.2813,1.64502 1.91074,2.47559l-1.90723,-0.01758c-1.2501,-1.38428 -2.24692,-2.93115 -3.62769,-4.40771c-0.55664,0.56689 -1.10684,1.1499 -1.65659,1.72559c-0.02871,0.86426 0.28447,2.06104 -0.38452,2.63086c-0.52134,0.04541 -0.56235,0.08057 -1.07534,-0.07471c-0.36738,-0.80273 -0.16597,-8.53711 -0.15293,-9.9873z" fill="#caa768"></path><path d="M55.75898,227.02002l1.78447,0.10986c-1.43027,1.45898 -2.81426,2.96338 -4.15005,4.51025l2.39443,2.9458c0.44473,0.46582 1.58247,1.98779 2.04009,2.56348l-1.85962,0.00293c-1.21567,-1.25391 -2.50972,-3.00293 -3.71484,-4.37549l-1.62114,1.64502c0.02373,0.76318 0.19277,2.15186 -0.27788,2.69092c-0.51401,0.09229 -0.57861,0.05713 -1.08677,-0.00879c-0.45688,-0.53467 -0.20889,-8.73926 -0.19336,-10.01514l1.55068,0.03516l-0.00527,5.21338c1.70039,-1.63184 3.38071,-3.5918 5.13926,-5.31738z" fill="#ad884c"></path><path d="M61.9875,227.12695c1.01851,-0.02783 4.29419,-0.25049 4.98193,0.20215c0.00996,0.40869 0.07397,0.73535 -0.1355,1.06934c-1.20908,0.19922 -3.91772,0.08643 -5.32148,0.0835l0.01333,2.80811c1.08325,0.0249 4.19414,-0.29883 4.84424,0.47607c-0.01377,0.51709 0.07617,0.52148 -0.18018,0.85254c-1.04473,0.17871 -3.46846,0.0791 -4.6812,0.104l-0.02856,2.12842c0.00688,0.53027 -0.08437,0.3252 0.14297,0.73096c0.95493,0.40283 4.07329,0.12305 5.38389,0.16699l0.16626,0.23145c0.07397,0.53467 0.1147,0.55078 -0.10107,1.06055c-0.36768,0.24756 -6.23071,0.12012 -7.15928,0.11426l-0.01084,-10.01514z" fill="#ad884c"></path><path d="M221.20166,227.07275c0.49219,-0.01172 1.05029,-0.0791 1.47803,0.11865c0.17432,0.8584 0.08789,4.11914 0.08057,5.23535c1.57471,-1.51172 3.43359,-3.61963 4.97021,-5.25586c0.59619,-0.0293 1.32715,-0.01758 1.93506,-0.02344l-4.13232,4.47803l2.47119,3.10254c0.5625,0.76758 1.33301,1.6582 1.94824,2.4082l-1.97314,0.01611c-1.23047,-1.45459 -2.27197,-2.91943 -3.58008,-4.39893l-1.60547,1.74609c-0.01025,0.93896 0.3208,2.04785 -0.42773,2.64844c-0.63428,0.01025 -0.68115,0.12158 -1.11328,-0.16113c-0.28271,-1.67285 -0.0791,-7.9248 -0.05127,-9.91406z" fill="#ad884c"></path><path d="M244.19678,227.13867c-0.01904,2.4375 -0.8833,8.43604 2.39209,8.6499c4.93506,0.32373 1.67871,-7.38721 3.31055,-8.88428c1.125,0.00586 1.10596,0.646 1.15137,1.45166c0.02197,1.64941 0.41016,6.33105 -0.95654,7.71387c-1.9541,1.97314 -6.5083,1.65527 -7.229,-1.46777c-0.47461,-2.05811 -0.2959,-5.15625 -0.271,-7.50732z" fill="#9c7742"></path><path d="M182.54297,227.11084l1.58789,0.01465l-0.04102,4.84277c0.00293,1.99072 0.43359,3.86865 2.80371,3.84229c4.36816,-0.0498 1.51172,-7.32715 2.83154,-8.74219c1.27002,-0.10107 1.27002,0.42773 1.28613,1.41064c0.01611,1.74609 0.41602,6 -1.07227,7.56738c-1.85889,1.95557 -6.1084,1.67578 -7.04736,-1.11035c-0.56982,-1.68896 -0.42187,-5.74951 -0.34863,-7.8252z" fill="#caa768"></path><path d="M238.7417,226.979c0.54932,0.09229 1.13086,0.16406 1.68457,0.2417c-1.4458,1.4165 -2.82861,2.89453 -4.14404,4.43262c-0.38672,0.30469 -0.89209,0.67236 -1.13672,1.09863c-0.59619,0.75293 -0.85547,0.96826 -1.57471,1.59229c0.00879,0.76465 0.104,2.08594 -0.11572,2.75391c-0.44531,0.08203 -0.80713,0.01318 -1.25684,-0.03223c-0.40283,-0.59766 -0.25342,-8.74658 -0.24463,-9.95215l1.56738,0.05127l0.03223,5.27637c1.68896,-1.8252 3.41016,-3.73389 5.18848,-5.4624z" fill="#ad884c"></path><path d="M94.24321,227.12549l1.41343,-0.01904c0.89648,-0.01758 1.63564,-0.00586 2.39487,0.55225l-0.06929,0.40283c-1.16367,0.63721 -2.16079,0.46875 -3.50273,0.44385c0.00776,1.73145 0.13081,6.97998 -0.06812,8.46387c-0.40225,0.24023 -0.99009,0.17285 -1.48564,0.16992c-0.16992,-0.95654 -0.05552,-7.34033 -0.04673,-8.65723c-0.78208,0.02197 -2.77339,0.20801 -3.26997,-0.24902c-0.01611,-0.40723 -0.08071,-0.67676 0.14004,-1.00635c1.03257,-0.19336 3.31846,-0.10693 4.49414,-0.10107z" fill="#ad884c"></path><path d="M160.41357,227.1167c1.50146,-0.00146 6.75439,-0.08496 8.0127,0.1333c0.25049,0.43506 0.1582,0.39111 0.14063,0.98438c-0.57715,0.4585 -2.48877,0.2915 -3.33398,0.27686l-0.00293,5.21191c0.00879,0.78369 0.09521,2.71436 -0.16699,3.36768c-0.52002,0.06445 -0.73535,0.00439 -1.24365,-0.07471c-0.41748,-0.57715 -0.21094,-7.32861 -0.20215,-8.50781c-1.05176,-0.01611 -2.35107,0.29004 -3.14795,-0.20947c-0.22559,-0.53467 -0.12598,-0.5127 -0.05566,-1.18213z" fill="#e9d093"></path><path d="M111.91772,227.09912c0.54448,-0.01611 1.13906,-0.09375 1.55098,0.21094c0.19629,1.69775 0.05581,7.86035 0.04893,9.83936c-0.17183,0.00439 -0.34365,0.00732 -0.51548,0.00732c-0.41426,-0.00439 -0.79087,0.0249 -1.04531,-0.23291c-0.21738,-1.97461 -0.08643,-7.64941 -0.03911,-9.82471z" fill="#caa768"></path><path d="M156.49512,227.09473l1.64941,0.07764l-0.02344,9.9917c-0.47607,0.00586 -1.18506,0.07471 -1.54248,-0.20215c-0.16553,-1.04736 -0.07031,-2.69385 -0.06445,-3.81152c0.00732,-2.01855 0,-4.03711 -0.01904,-6.05566z" fill="#e9d093"></path><path d="M236.28223,231.65332l4.46777,5.46387l-1.90576,0.04248c-1.03125,-1.25684 -2.61475,-3.29736 -3.69873,-4.40771c0.24463,-0.42627 0.75,-0.79395 1.13672,-1.09863z" fill="#ad884c"></path></g></svg></svg>